<?xml version="1.0" encoding="utf-8"?>
<!-- Generator: Adobe Illustrator 24.0.1, SVG Export Plug-In . SVG Version: 6.00 Build 0)  -->
<svg version="1.1" id="Vrstva_1" xmlns="http://www.w3.org/2000/svg" xmlns:xlink="http://www.w3.org/1999/xlink" x="0px" y="0px"
	 viewBox="0 0 1016 587" style="enable-background:new 0 0 1016 587;" xml:space="preserve">
<style type="text/css">
	.st0{fill:#020202;}
	.st1{fill:#1C1C1C;}
</style>
<g>
	<g>
		<path class="st0" d="M660.9,334.28c-3.33,0.15-3.22,3.83-5.37,5.25c-1.23,0.81-2.16,2.08-3.34,2.99c-1.43,1.1-2.5,0.14-3.38-0.93
			c-1.51-1.82,0.6-1.76,1.31-2.18c2.86-1.68,2.07-3.96,1.51-7.22c-2.15,2.52-6.03,4.5-6.05,4.93c-0.26,6.5-5.87,5.43-9.39,7.39
			c-2.56,1.43-3.28,4.44-3.46,7.39c-0.13,2.1,0.09,4.54-3.06,4.75c-0.11-0.06-0.21-0.05-0.3,0.02c-3.9,2.74-7.76,3.32-11.84-0.33
			c3.04-2.83,5.95-5,9.92-2.03c0.99-1.92-3.83-3.21,0.16-5.36c1-0.54-3.29-1.89-4.1-4.09c-0.35-0.94-1.81-0.74-2.67-0.1
			c-2.14,1.6,0.22,2.45,0.69,3.6c0.36,0.87,1.28,1.79,0.2,2.62c-0.72,0.55-1.67,0.06-2.24-0.52c-2.07-2.12-6.97,0.02-7.28-5.03
			c-0.06-0.94-2.13-0.93-2.05,0.94c0.12,2.87-2.01,4.84-3.91,4.32c-3.24-0.88-4.71-4.13-4.73-7.5c-0.01-1.84,1.66-1.4,2.61-0.82
			c2.58,1.56,3.18-0.29,3.69-2.06c0.82-2.82-1.33-2.36-2.93-2.5c-0.79-0.07-2.13-0.07-2.28-0.46c-2.24-5.66-6.65-2.54-10.23-2.6
			c-0.92-0.02-2.24-0.03-2.42,1.23c-0.22,1.52,1.19,1.73,2.24,2.17c1.38,0.58,2.76,1.16,4.1,1.81c0.88,0.43,1.98,0.98,1.91,2.06
			c-0.1,1.53-1.55,0.6-2.31,0.96c-3.26,1.55-0.61,2.94,0.35,4c1.55,1.72,5.48,2.22,2.5,5.89c-0.23,0.28,0.09,1.51,0.48,1.72
			c4.02,2.24,3.65,7.24,6.53,10.23c1.08,1.12,0.91,3.03-1.06,3.56c-1.52,0.41-2.44-0.55-2.65-2.16c-0.27-2,0.12-5.25-2.84-4.55
			c-2.22,0.52-5.12,2.72-2.48,6.17c0.53,0.7,0.14,1.37-0.47,1.57c-0.55,0.18-1.3,0.03-1.88-0.19c-1.21-0.44-2.36-1.96-1.78-2.6
			c2.6-2.91,0.18-2.45-1.57-3.25c-1.25-0.57-2.94-2.78-2.64-3.63c0.66-1.86,2.84-2.03,4.66-1.23c1.74,0.77,2.48,0.16,2.77-1.51
			c0.38-2.25-0.54-1.65-2.13-1.35c-2.71,0.52-0.49-2.94-2.31-3.45c2.39-1.18,1.79-3.24,0.54-4.36c-1.62-1.46-4.18-0.25-5.45,0.56
			c-1.74,1.1-2.62,1.39-4.43,0.34c-2.58-1.5-4.84-0.18-6.98,1.89c0-1.67,0-3.16,0-4.64l-0.02,0.02c2.7-1.23,2.36-3.73,2.48-6.01
			c0.12-2.27,0.07-4.59,2.32-6.09c1.93,1.36,0.17,3.39,1.53,4.82c1.61-1.92,3.39-3.93,2.41-6.56c-0.94-2.52-3.77-1.36-5.65-2.07
			c-4.11-1.55-7.84,0.1-11.51,1.1c-3.25,0.88-3.95,4.62-3.05,6.95c1.1,2.85,1.6,4.48-1.49,5.91c-0.42,0.19-0.46,1.19-0.68,1.82
			c-0.48,0.03-0.96,0.06-1.44,0.09c-4.76-0.21-8.84-4.14-14.12-2.21c-2.1,0.77-3.31,1.14-2.46,3.52c-0.16,0.74-0.32,1.47-0.48,2.21
			c-4.92-4.18-4.79-5.16-0.21-8.44c1.92-1.38,3.65-3.59,4.51-5.79c1.69-4.34-0.9-7.06-5.72-6.7c-1.41,0.11-2.86-0.26-4.29-0.4
			l0.09,0.11c0.1-3.03-2.14-2.28-3.84-2.36c-3.89-0.17-7.66-0.69-10.4-3.87c-1.03-1.2-2.66-1.72-3.52-0.89
			c-2.33,2.26-5.19,2.56-8.07,2.95c-1.79,0.25-1.51,1.48-1.43,2.59c0.12,1.66,0.5,3.31,0.51,4.96c0.01,2.07-0.5,4.39-2.65,4.91
			c-2.47,0.59-0.89-2.79-2.92-3.51c-1.41,2.91-5.1,4.82-3.3,9.3c0.46,1.15-1.3,2.62-2.72,3.23c-2.08,0.89-2.35-1.21-3.8-2.76
			c-0.83,5.01,1.25,8.83,2.26,13.46c-1.54,1.77-3.55-2.16-5.09-1.01c-4.38,3.27-9.44,1.86-14.16,2.74
			c-7.43,1.39-9.11,4.57-7.19,11.79c0.2,0.75,0.03,1.61,0.03,2.45c-2.51,0.21-2.55-1.96-3.47-3.15c-0.81-1.04-1.28-2.46-2.9-2.4
			c-3.15,0.12-5.38-0.46-7.27-3.74c-1.2-2.09-4.58-1.51-6.08,1.35c-1.19,2.28-3.04,3.07-5.51,3.53c-2.43,0.46-3.19-0.5-3.11-2.44
			c0.06-1.48-0.04-3.77,2.77-2.52c0.75,0.34,1.58,0.77,2.04-0.34c0.3-0.71-0.03-1.26-0.76-1.54c-1.86-0.71-1.43-2.33-1.61-3.79
			c-0.23-1.96,1.23-5.64-2.96-4.41c-3.27,0.96-7.94-0.31-8.8,5.56c-0.77,5.3,2.22,6.09,7.22,6.59c-4.92,2.43-6.1,4.97-2.65,8.32
			c0.48,0.47,0.76,1.16,0.02,1.65c-2.75,1.82-3.17,5.36-5.59,7.59c-1.45-0.88-0.9-2.24-0.47-3.01c2.87-5.09,0.46-9.97-0.39-14.91
			c-0.24-1.37-1.55-2.62-0.05-4.1c0.7-0.7,0.95-1.86-0.29-2.44c-0.87-0.4-1.87,0.18-2.11,0.88c-1.99,5.97-9.75,6.03-12.08,11.94
			c-0.56,1.43-0.96,3.4-2.59,4.94c-0.45-1.41-0.84-2.7-1.28-3.96c-0.39-1.12-0.94-2.32-2.28-2.31c-1.41,0.02-1.88,0.96-1.57,2.39
			c0.36,1.67-0.95,1.84-2.11,2.04c-1.19,0.21-1.82,0.85-1.41,2.06c1.47,4.35-1.18,5.12-4.58,6.33c-4.35,1.56-9.12,2.03-13.06,4.69
			c-1.69,1.14-2.41,0.8-3.29-1.08c-0.61-1.29-1.13-3.51-1.73-3.75c-5.15-2.1-4.48-5.52-3.02-9.66c0.71-2.01,7.68-11.52,9.69-12.22
			c1.56-0.54,2.07,0.63,2.81,1.42c1.47,1.59,3.18,2.64,6.36,2.93c-4.62-6.16-1.5-13.08-3.64-19.26c-0.28,0.04-0.77,0.02-0.81,0.14
			c-2.12,6.49-3.19,7.5-9.71,6.1c-4.48-0.96-9.34-0.76-13.4-3.51c-1.09-0.74-2.57-1.36-3.2,0.6c-0.59,1.85,0.76,2.19,2.17,2.5
			c1.13,0.25,2.29,0.57,3.28,1.13c1.88,1.07,3.4,2.97,2.35,4.9c-1.14,2.11-3.18,0.73-4.72-0.23c-3.31-2.05-5.36-2.38-5.21,2.74
			c0.09,2.96-1.85,5.51-4.76,6.43c-4.71,1.49-6.16,4.73-6.13,9.26c0.02,3.55,0.77,7.37-3.48,9.57c-1.57,0.81-2.34,2.24-4.62,0.87
			c-1.65-0.99-4.71-1.74-5.02,2.24c-0.12,1.53-1.99,1.64-2.79,2.58c-1.05,1.24-6.8,1.09-1.61,4.55c-2.82,2.42,2.35,4.69-0.15,7.91
			c-1.79,2.31-2.37,6.14-4.02,8.98c-0.96,1.65-3.42,0.59-5.16,1.12c-8.43,2.54-16.58,1.61-24.47-2.23
			c-2.97-1.45-4.85-3.97-7.22-6.82c-1.17,2.45-0.54,4.76-0.71,6.9c-0.28,3.55-1.93,5.32-5.57,5.74
			c-9.15,1.06-14.53,4.96-18.51,13.06c-0.64,1.31-1.78,1.95-2.97,2.53c-2.5,1.24-4.05,3.36-5.48,5.64
			c-13.59,21.7-22.78,45.58-33.98,68.47c-4.79,9.78-6.59,20.53-9.8,30.82c-3.67,11.75-10.68,21.74-16.51,32.33
			c-2.55,4.64-7.13,7.3-12.13,9.12c-1.63,0.59-3.63,0.34-4.84,1.98c-3.33,0-6.67,0-10,0c-2.22-2.16-4.7-4.11-6.61-6.52
			c-7.22-9.07-4.27-18.91-1.54-28.51c1.62-5.69,5.45-10.25,9.57-14.43c14.39-14.61,26-31.32,34.18-49.94
			c4.93-11.23,10.67-22.11,15.12-33.55c1.91-4.91,2.88-9.98,5.99-14.68c5.73-8.65,8.43-18.97,13.68-28.04
			c1.59-2.75-0.1-7.17,3.12-10.15c0.73-0.67-0.12-3.41-2.35-3.9l0.06,0.11c-0.01-0.63-0.23-1.36,0.01-1.86
			c2.1-4.39,3.39-7.95-4.07-7.37c-2.27,0.18-2.01-4.57-5.45-4.41c-0.88,2.04,1.61,3.44,1.25,5.41c-0.21,1.14-0.11,2.58-1.57,2.7
			c-1.21,0.09-1.58-1.17-1.5-2.17c0.23-2.98-2.65-3.5-3.98-5.08c0.66-2.11,4.31-0.44,3.93-3.05c-0.31-2.16-2.45-0.31-3.74-0.63
			c-2.78-0.67-1.6,2.62-2.51,3.95c-1.82-0.1-2.35-1.35-2.38-2.7c-0.07-2.92,0.69-6.02-3.6-6.92c-1.35-0.28-0.78-2.04-0.2-3.02
			c0.69-1.16,1.76-2.16,3.26-1.72c2.67,0.79,3.26,0.62,3.04-2.05c-0.22-2.6-0.97-4.96,3.13-4.57c1.1,0.1,1.57-1.33,1.18-2.31
			c-0.98-2.5-1.49,0.57-2.07,0.27c-2.25-1.15-2.61-3.11-1.75-5.29c0.67-1.69,2.49-3.25-0.25-5.38c0,3.35-4.61,4.81-2.67,8.83
			c0.22,0.47-1.42,2.2-1.9,1.72c-1.39-1.36-4.63-1.58-4.03-4.03c0.46-1.86,0.2-2.64-1.34-2.68c-1.64-0.04-1.05,1.7-1.46,2.67
			c-3.07,7.39-4.35,15.59-9.88,21.88c-2.72,3.1-3.64,7.12-4.45,10.87c-1.41,6.48-1.94,13.15-2.8,19.74
			c-0.07,0.57,0.63,1.52-0.16,1.68c-2.8,0.58-5.62,0.56-8.32-0.61c-2.34-1.02-3.52-3.11-2.6-5.27c4.76-11.23,3.16-24.05,9.09-34.99
			c2.8-5.16-0.86-11,1.19-16.46c0.56-1.5-2.02-1.65-3.28-2.33c-1.48-0.79-3.98-1.39-0.62-3.73c6.41-4.47,7.49-9.08,4.85-17.36
			c-0.46-1.43,0.71-1.03,1.11-1.44c3.6-3.68,3.64-5.72,0.13-9.66c-0.11-0.12-0.35-0.23-0.35-0.34c0.36-9.38-10.67-4.4-12.88-11
			c1.05,4.91-1.8,7.49-3.96,10.49c-1.28,1.77-4.76,3.71-0.77,6.5c0.26,0.18-1.28,3.43-2.42,4.91c-0.77,1-1.83,0.38-2.83-0.65
			c-0.87-0.9-5.65,3.71-5.17,5.52c1.55,5.92-3.68,9-5.56,13.37c-1.97,4.56-6.63,7.75-8.16,12.94c-0.56,1.9-2.51,3.01-4.57,3.52
			c-1.56,0.39-3.02,0.33-4.09-1.01c-0.96-1.21-0.78-2.75,0.02-3.76c5.26-6.69,5.72-15.56,10.44-22.5c3.42-5.03,2.48-10.87,2.23-16.5
			c-0.14-3.15-3.59-2.38-5.7-4.65c7.89,1.36,8.09-3.75,7.84-8.55c-0.19-3.68,1.82-5.64,4.24-7.29c-0.38-1.31-1.08-1.23-1.65-0.91
			c-1.37,0.77-3.17,2.67-4.11,0.49c-0.87-2,1.65-2.82,3.28-3.57c0.88-0.41,2.7,0.51,2.37-1.56c-0.25-1.56-1.62-2.11-2.94-2.26
			c-2.45-0.27,0.04,2.31-1.65,2.69c-2.26-0.92-1.83-3.54-3.06-5.62c-0.33,0.48-0.92,0.97-0.83,1.25c1.91,6.1-3.59,6.14-6.63,8.19
			c-2.51,1.69-5.83,2.44-5.99,6.58c-0.08,1.94-2.39,2.55-4.26,2.8c-3.5,0.46-6.05,1.99-6.29,5.83c-0.1,1.54-1.08,1.53-2.06,2.15
			c-5.3,3.33-8.49,0.79-10.94-3.67c5.49-5.7,10.84-11.75,11.55-20.46c0.11-1.41,0.93-2.17,2.1-2.45c6.46-1.52,11.73-9.11,9.96-14.98
			c-0.55-1.82-3.25-3.29,0.4-4.6c0.84-0.3,1.52-0.55,1.75,0.7c0.14,0.81-0.54,2.35,1.13,2.05c1.27-0.22,1.67-1.44,1.54-2.75
			c-0.18-1.92-0.45-3.87,0.73-5.72c1.78,0.49,1.99,2.74,3.82,3.02c1.08,0.16,2.1,0.12,2.64-0.82c0.6-1.03-0.42-1.28-1.12-1.71
			c-0.95-0.57-1.5-2.09-0.37-2.21c3.83-0.4,2.66-3.03,2.44-4.99c-0.42-3.7,0.66-4.98,4.36-3.56c1.15,0.44,2.42,1.27,3.8,0.4
			c0.82-0.51,1.12-1.23,0.83-2.1c-0.39-1.16-1.27-2.43-2.4-2.14c-3.61,0.95-5.83-0.02-6.06-3.88c-0.26-4.28,1.92-6.5,6.53-6.19
			c-1.29-4.38-3.98-4.59-7-2.88c-3.46,1.95-6.02,5.2-9.7,6.96c-2.01,0.96-0.37,2.98-0.54,5.38c-3.49-1.93-6.59-3.62-9.67-5.37
			c-2.86-1.63-1.34-3.72-0.34-5.53c0.86-1.57,1.5-4.25,4.26-2.04c1.57,1.26,1.98,0.03,3.06-0.92c3.77-3.34,5.24-8.51,9.45-11.42
			c0.68-0.47,0.83-1.19,0.41-1.7c-0.74-0.88-1.87-0.75-2.76-0.3c-2.55,1.28-5.15,2.34-8.04,2.48c-2.6,0.12-3.88-0.39-2.29-3.37
			c2.11-3.94,4.87-7.48,6.43-11.78c1.17-3.22,2.82,0.54,4.38,0.35c0.8-2.03-0.54-3.09-1.96-3.99c-3.31-2.09-1.25-3.47,0.84-3.52
			c2.72-0.06,2.43-1.55,2.48-3.16c0.08-2.53-3.91-5.7-6.85-6.63c-2.89-0.91-4.15-4.05-6.73-6.59c6.16-1.17,9.96,3.31,14.77,4.1
			c-1.99,3.72,4.71,3.6,3.13,7.07c-0.4,0.88,0.33,0.88,0.58,0.84c0.62-0.1,1.64-0.32,1.72-0.66c0.51-2.28,1.87-4.62-1.53-6.28
			c-5.61-2.73-6.77-6.08-4.7-11.76c0.16-0.45,0.35-0.96,0.29-1.41c-0.66-4.86-0.67-4.86,4.21-6.49c0.2-3.33-6.66,0.97-4.03-5.12
			c-1.22,1.11-1.64,1.65-2.19,1.95c-1.34,0.72-0.66,3.57-3.26,2.96c-2.66-0.62-0.78-2.8-1.51-4.02c-0.58-0.97,0.34-2.95-1.12-2.96
			c-8.06-0.04-3.44-4.91-3.31-8.59c2.22,3.96,4.67,3.37,7.65,1.43c2.65-1.72,4.95-0.32,6.5,2.14c2.25-2.1-0.55-3.24-0.14-4.9
			c2.02,0.46,3.75-0.47,5.51-1.32c-0.02,0.63,0.02,1.26-0.06,1.88c-0.18,1.51,0.56,2.1,1.97,2.12c1.07,0.01,2.09-0.26,2.2-1.45
			c0.12-1.27-0.54-2.25-1.9-2.43c-0.77-0.1-1.57,0.01-2.36,0.02c-0.22-1.11,0.3-2.26-0.5-3.36c-4.5-6.12-4.47-6.14-1.9-12.07
			c2.56,1.94,1.34,6.91,6.14,7.21c-0.42-2.21-0.88-4.34-1.21-6.5c-0.77-5.07,3.01-8.51,7.81-7.12c1.5,0.43,2.85,1.08,2.77,3
			c-0.07,1.67-1.21,2.33-2.63,2.47c-3.5,0.33-4.52,1.96-2.57,4.95c1.19,1.82,0,2.08-1.08,3.1c-0.53,0.49,0.51,2.65,1.07,5.04
			c2.94-4.72,8.32-5.75,10.9-10.43c0.63-1.14,3.44-2.17,5.6-1.55c1.25,0.35,2.36,2.14,3.45-0.41c0.8-1.88,2.15-4.04,0.96-5.57
			c-1.03-1.32-3.46-1.54-5.3-2.17c-0.04-0.01-0.52,0.8-0.54,1.25c-0.17,3.27-1.93,2.47-3.68,1.43c-1.97-1.16-3.02-2.55-1.16-4.79
			c2.21-2.66,9.41-2.42,12.2,1.1c1.88,2.36,2.99,1.59,4.74,0.54c-0.63-1.93-2.56-0.96-3.33-2.1c-0.58-0.87-1.03-1.58,0.11-2.44
			c1.8-1.35,2.35-5.99,0.56-7.78c-1.23-1.22-1.6-1.95-0.52-3.23c1.19-1.4,2.46-3.13,4.31-3.12c2.11,0.01,0.53,2.54,1.68,3.53
			c1.55-0.32,2.49-1.76,2.1-2.87c-3.05-8.64,2.57-3.38,5.01-3.2c0.68,0.02,1.35,0.05,2.03,0.07c0.22,3.41,2.02,5.43,5.69,6.27
			c-0.39-1.95-2.15-4.95,3.67-2.69c-2.18-2.08-3.2-2.88-3.99-3.86c-0.69-0.86-2.67-1.47-0.07-3.05c1.35-0.82,1.45-3.31,3.96-1.51
			c2.93,2.1,5.62,6.13,10.23,1.52c-2.85-0.8-2.61-4.17-5.11-5.38c-0.82-0.4-1.07-1.25-0.25-2c0.7-0.64,1.28-0.44,2.14,0.04
			c3.08,1.71,5.73,3.61,6.5,7.39c0.16,0.8,0.14,4.72,2.4,0.82c0.55-0.95,1.1,0.04,1.23,0.56c0.39,1.53,0.29,3.45-1.24,3.84
			c-1.86,0.47-2.51,1.22-2.29,2.94c0.1,0.79,0.68,1.14,1.42,0.91c1.44-0.45,3.05-1.01,3.45-2.54c0.41-1.56,0.48-3.31,0.26-4.92
			c-0.37-2.76,1.82-2.77,3.36-3.44c2.1-0.92,2.58,1,3.17,2.2c1.24,2.52,0.86,5.15,0.1,7.76c-0.49,1.68-1.76,3.2-1.08,5.63
			c2.1-1.56,4.12-1.8,6.09,0.08c0.59,0.56,1.6,1.45,2.58,0.42c0.29-0.31,0.4-0.92,0.37-1.37c-0.09-1.19-0.81-1.56-2.01-1.62
			c-1.14-0.06-3.79,1.23-2.78-1.45c0.39-1.05-0.29-5.58,4.02-3.46c3.87,1.9,4.75-2.28,6.57-4.11c1.71-1.7-0.9-2.43-1.5-3.61
			c-0.68-1.32-1.66-2.47-2.36-3.78c-0.52-0.96-0.44-2.4,0.8-2.3c5.5,0.42,6.82-5.01,10.39-7.27c2.19-1.38-0.6-2.37-1.51-2.89
			c-3.8-2.17-5.94-5-5.18-9.63c0.29-1.78,0.81-3.37,2.45-4.03c2.34-0.94,0.64,2.76,2.59,2.51c0.49,0.06,0.99,0.11,1.48,0.17
			c-2.41,3.58-0.73,6.11,2.02,8.54c1.01,0.89,4.8,1.56,0.93,3.92c-0.18,0.11,0.5,2.89,2.8,2.54c1.88-0.29,3.83-0.05,5.72-0.3
			c2.41-0.32,3.97,0.15,5,2.72c1.1,2.75,3.64,4.12,5.98,1.75c0.91-0.93-1.91-3.25-1.07-5.37c-2.15-0.8-2.75-1.9-1.26-4.03
			c0.29-0.41-0.25-3.06-2.53-2.05c0,0,0.07,0.11,0.07,0.11c1.1-0.54,0.3-1.33,0.27-2.02c0.2-0.25,0.4-0.49,0.6-0.74
			c1.14-0.64,2.27-1.27,3.56-2c0.57,1.74,1.15,3.51,1.92,5.87c3.04-3.39,5.8-6.62,10.47-7.37c1.67-0.27,2.86-2.66,3.91,0.72
			c0.31,1,1.9,0.51,2.24-0.61c0.8-2.65,3.81-3.58,4.54-6.34c1.49,4.52,3.57,8.9-0.22,13.32c2.12-1.71,6.32-2,3.64-6.41
			c-0.62-1.02,0.19-2.63,1.31-2.87c2.14-0.46,2.23,1.77,3.01,3.27c1.06-4.88,1.08-4.92-2.82-7.08c-0.61-0.34-1.16-0.32-0.98-1.22
			c0.46-2.28,2.07-3.24,4.13-3.66c0.14-1.7-1.57-2.06-2.1-3.23c-0.4-0.88-0.32-1.64,0.33-2.26c0.68-0.64,1.19-0.02,1.55,0.48
			c1.34,1.88,3.44,0.56,5.52,1.36c-3.18,3.07-3.58,6.79-2.74,10.69c0.3,1.38,0.33,3.39,2.13,3.56c1.29,0.13,2.14-1.33,2.86-2.49
			c1.96-3.18,4.42-3.09,6.6,0.25c0.52,0.8,0.69,2.1,1.97,1.71c1.27-0.4,1.56-1.57,1.32-2.84c0,0-0.08,0.02-0.08,0.02
			c5.35-0.85,5.35-0.85,2.07-5.14c-0.08-0.11-0.03-0.33-0.04-0.49l-0.02,0.06c2.59-1.17,1.39-3.81,2.33-6.07
			c3.38,4.05,6.93,7.33,11.68,2.03c-0.12-1.2-8.45-2.33-0.02-3.82c1.5-0.27-0.23-2.89,1.42-3.93c5.42,7.7,4.97-2.43,8.32-2.76
			c1.81,4.87-5.03,9.55-0.04,14.31c2.26-0.4,3.67-5.17,7.57-2.58c0.17,0.12,1.82-1.99,2.87-3.16c2.39,0.37,2.02,8.89,6.7,2.41
			c0.67,0.05,1.34,0.09,2,0.14c1.81,0.34,3.62,0.68,5.43,1.02c1.38-0.06,2.12-0.95,2.69-2.06c4.49,2.05,3.51-3.08,3.4-3.6
			c-0.61-2.93,1.06-4.14,2.95-5.55c1.05-0.79,3.74-0.9,1.83-3.47c-0.39-0.53,0.42-1.11,1.13-1.18c1.03-0.11,2.14-0.04,2.54,1.06
			c1.24,3.42,2.7,6.81,3.43,10.35c0.6,2.92-2.75,0.25-3.3,1.92c4.02,2.81,6.03,2.5,8.08-1.71c0.82-1.69,1.65-2.21,3.44-1.6
			c1.48,0.51,2.67-0.06,2.8-1.8c0.12-1.56-1.01-1.88-2.27-2.01c-4.07-0.43-6.2-1.73-4.7-6.65c0.51-1.67-3.49-3.59-2.81-6.86
			c3.07,0.42,4.99,1.88,5.52,5.15c0.84,5.18,6.67,9.06,11.94,8.53c5.24-0.53,9.66-3.17,14.47-4.75c4.14-1.37,8.41-2.72,12.68-3.65
			c9.66-2.11,18.97-6.15,29.15-5.67c1.11,0.05,2.74-0.14,3.31-0.86c4.41-5.6,8.33-2.2,11.81,0.82c2.74,2.38,5.68,3.95,9.04,4.97
			c4.6,1.39,6.13,5.3,7.46,9.29c0.8,2.41,1.07,4.63,4.92,3.43c2.32-0.72,4.57,1.5,5.17,4.13c1.05,4.62,6.38,4.28,8.48,7.61
			c1.9-1.29,3.79-2.57,6.08-4.13c0.38,2.82-0.51,4.68-2.3,6.2c-3.51,2.97-4.36,7.01-4.52,11.31c-0.04,1.15,0.52,2,1.61,2.16
			c0.35,0.05,1.22-0.85,1.19-1.28c-0.4-6.57,5.04-2.47,7.44-3.66c2.64-1.31,2.29,2.61,2.9,4.47c0.2,0.61,0.33,1.24,0.51,1.92
			c1.75-1.06,1.37-2.67,1.45-4.11c0.18-3.33-1.13-7.2,3.28-8.98c-0.61-7.29,5.47-5.76,9.22-6.49c3.25-0.64,3.82-3.95,6.46-4.86
			c0.18-0.06,0.37-0.8,0.27-0.89c-3.85-3.21-0.73-6.85,0.11-10.37c2.91,1.03,6.02,2.19,2.56,6.77c-1.06,1.4-0.39,3.25-0.68,4.86
			c-0.66,3.64-1.15,7.11-5.72,8.59c-5.6,1.81-5.93,3.39-3.65,8.78c0.51,1.21,0.7,2.56,1.1,3.82c0.32,0.99-0.43,2.55,1.25,2.81
			c0.44,0.07,1.22-0.57,1.48-1.07c0.54-1.03,2.17-2.21,0.63-3.35c-1.85-1.37-0.97-2.91-0.85-5.8c2.91,4.51,6.56,6.87,9.43,10.08
			c-3.15-1.06-5.52,0.34-8.01,2.13c-1.06,0.77-2.09,3.06-4.1,1.5c-1.02-0.79-1.2-4.19-3.26-1.36c-1.25,1.72-1.35,4.14,0.88,5.76
			c1.45,1.05,2.9,2.08,4.21,3.02c2.14-1.83-0.48-6.39,3.36-6.44c3.38-0.04,5.25-2.12,7.74-3.42c1.88-0.89,3.02-2.56,4.33-4.05
			c0.44-0.5,0.71-1.27,1.25-1.53c5.14-2.47,5.15-2.45,7.19-8.63c0.08-0.24,0.5-0.37,1.27-0.9c0,2.57,0,4.87,0,8.03
			c2.34-1.77,3.94-3.01,5.56-4.21c1.65-1.22,3.4-0.78,4.45,0.57c1.09,1.41-0.82,2.01-1.53,2.87c-1.06,1.27-0.96,8.48,0.35,9.06
			c1.26,0.56,2.62,0.08,3.63-0.92c0.99-0.98,1.43-1.93-0.45-2.45c-0.66-0.18-1.31-0.63-0.94-1.4c0.4-0.84,1.35-1.01,2.15-0.78
			c1.95,0.56,3.59,1.42,4.49-1.69c0.58-2.02,2.07-0.99,2.71,0.44c0.71,1.57,1.09,3.56,0.03,4.8c-3.08,3.59-1.41,6.75,0.56,10.42
			c1.29-1.81,0.72-3.59,0.57-5.23c-0.18-1.91-0.21-3.71,1.65-4.85c1.4-0.87,1.78-1.89,0.75-3.26c-0.42-0.57-0.43-1.09-0.26-1.82
			c0.54-2.31,2.74,3.89,2.61-0.53c-0.04-1.29-1.97-2.56,0.06-3.83c1.45-0.14,1.45,5.51,3.98,0.99c3.37-0.44,3.37-0.44,4.9,6.62
			c2.38-3.44,4.66-6.35,5.51-10.23c0.27-1.23,0.11-3.44,2.23-3.3c1.3,0.09,2.21,1.27,2.53,2.74c0.56,2.6-1.75,2.06-3.05,2.66
			c8.26,7.42,8.26,7.42,12.23,1.85c-4.59-1.46-7.66-4.25-7.56-9.39c0.43,0.01,0.85,0.03,1.28,0.04c1.42,1.26,2,3.5,4.5,3.8
			c0.52-1.64-0.66-2.88-0.86-4.28c0.45-1.24,0.9-2.47,1.35-3.71c4.38,0.21,2,4.21,3.4,6.09c6.59-2.11,10.68,2.43,9.02,10.54
			c-0.92,4.5,1.2,5.22,4.63,4.67c1.69-0.27,2.88-0.03,4,1.17c0.84,0.91,1.79,0.94,2.41-0.21c0.55-1.03,0.41-1.9-1.06-2
			c-0.96-0.07-2.04,0.01-2.08-1.47c-0.03-1.41,1.06-1.62,1.97-1.76c4.05-0.64,2-4.83,3.9-6.86c1.98,0.85,0.13,2.71,1.24,3.71
			c1.85-2.56,5.39-3.88,5.77-7.78c0.79,2.51,1.76,4.99,2.31,7.55c0.96,4.47-0.41,5.55-5.01,3.95c-1.74-0.6-3.72-0.53-2.6,1.42
			c3.43,6-1.45,7.43-6.56,10.47c8.86-1.26,8.59,4.56,10.12,9.11c0.39-3.37,2.7-4.39,5.32-5.44c0.51,2.66-1.86,4.43-1.93,6.9
			c-0.06,2.15-2.61,4.79,2.05,5.29c0-1.53-0.02-3.02,0-4.5c0.03-2.02-0.3-3.8,3.14-3.03c2.26,0.51,5.5-1.08,6.44-3.06
			c1.08-2.28,7.39,1.2,4.46-4.38c4.05,0.4,3.14-1.22,1.89-3.77c-0.51-1.04,1.52-1.36,2.68-1.18c1.57,0.25,1.62,1.12,1.13,2.53
			c-2.04,5.9-1.1,11.59,1.69,17.47c2.37-2.49,2.62-5.42,2.09-8.21c-0.33-1.76-0.05-2.52,1.51-2.83c1.65-0.33,1.82,0.97,2.1,2.13
			c0.86,3.51,1.19,7.04,0.12,11.21c3.81-2.14,4.82-4.96,4.54-8.46c0.41-0.02,0.81-0.04,1.22-0.06c0.68,2.87,2.51,5.25,3.25,8.17
			c0.73,2.88,8.48,5.35,11.16,3.79c2.64-1.54,2.28-3.93,0.47-5.75c-1.06-1.07-2.37-1.65-1.93-3.62c2.02,0.57,3.9,0.97,5.68,1.64
			c1.3,0.49,1.79,1.9,0.84,2.61c-1.09,0.81-1.37,1.35-0.47,2.25c0.42,0.42,1.12,0.75,1.71,0.76c1.08,0.02,1.98-0.6,1.99-1.74
			c0.03-1.67,0-3.33,0.87-4.82c0.46-0.79,0.73-2.26,1.95-1.74c4.71,2,5.05-2.51,5.77-4.57c0.66-1.89,2.05-2.77,3.03-4.09
			c0.29-0.39,1.86,1.09,2.39,2.12c1.03,2.02-0.82,2.56-1.73,3.85c-1.95,2.76-3.25,5.96-6.64,7.34c2.03,3.9,4.73,1.59,7.19,1.1
			c0.2,0.28,0.41,0.56,0.61,0.84c-0.2,0.45-0.46,0.89-0.57,1.36c-0.55,2.33-1.53,5.6,1.18,6.3c3.04,0.78,2.95-2.71,3.47-4.9
			c0.42-1.75,0.76-1.94,3.19-2.32c4.5-0.7,7.85,1.01,11.73,1.49c1.49,0.19,1.93,0.67,2.92,1.55c5.7,5.05,11.25,10.6,19.76,10.39
			c1.62-0.04,0.55,1.56,1.25,2.1c-0.25-0.02-0.5-0.03-0.75-0.05c0.08,0.22,0.16,0.44,0.24,0.65c0.14-0.24,0.28-0.49,0.42-0.73
			c2.55-0.21,4.86-0.98,6.86,2.13c1.81,2.81,4.98-0.04,7.7,0.24c-2.03-1.33-3.98-2.49-3.6-5.22c0.03-0.57,0.06-1.15,0.08-1.72
			c2.64-1.35,4,0.4,4.53,2.41c0.56,2.11,1.68,3.38,3.49,4.28l-0.05-0.14c1.15,1.8,3.06,2.56,4.93,3.02
			c1.76,0.43,3.79,0.31,1.94-2.42c-0.95-1.39-1.27-2.61,0.89-2.63c3.71-0.04,5.77-2.85,8.53-5.02c1.45,3.59,0.39,6.42-1.29,9.14
			c-0.98,1.6-2,3.19-0.47,4.97c1.73,2.02,2.35-0.36,3.48-0.89c1.95-0.92,2.68,0.31,3.1,1.98c0.63,2.5,0.53,4.9-0.62,7.28
			c-0.61,1.26,0.36,2.17,1.21,2.99c1.17,1.12,1.71-0.24,2.45-0.67c0.97-0.57,2.17-1.07,1.41-2.65c-0.43-0.89-2.61-2.06,0.02-2.71
			c1.81-0.45,3.32,0.54,3.61,2.49c0.16,1.1,0.04,2.42-0.45,3.39c-1.79,3.54-0.58,4.61,4.12,3.5c-3.2,2.8-3.39,3.94,0.27,4.83
			c2.85,0.69,5.68,2.78,8.46,1.2c2.48-1.41,4.12-3.45,6.03,0.58c0.27,0.57,2.24-1.45,3.3-2.44c0.98-0.92,1.95-1.93,3.45-1.34
			c0.28,0.11,0.47,1.18,0.45,1.19c-1.74,0.68,0.09,3.58-2.37,3.8c-1.49,0.13-2.99,0.24-4.44,0.57c-1.75,0.4-2.09,1.42-2.52,3.39
			c-0.99,4.63,1.38,8.3,2.15,12.39c0.49,2.65,0.38,5.28-0.52,7.85l0.02-0.06c-0.96,0.37-1.89,0.48-2.88,0
			c-5.09-2.48-5.69-1.92-6.38,3.85c-0.46,3.79,2.54,7.82-0.94,11.45c-0.88,0.92,0.36,1.81,1.39,1.93c3.2,0.36-0.31,3.28,1.64,4.34
			c0.27,0.15-1.49,0.7-2.36,0.75c-3.41,0.2-6.81,1.86-10.3-0.09c-0.55,2.22,2.41,2.97,1.62,4.98c-1.4,0.41-2.86,0.71-4.19,1.28
			c-0.92,0.39-2.62,0.54-2.14,2.06c0.36,1.16,1.26,2.41,2.27,3.06c1.77,1.14,1.45-1,2-1.69c1.01-1.25,1.87-2.61,2.8-3.92
			c2.67-3.18,4.93-0.91,6.17,1.1c2.33,3.75,4.76,2.06,5.98-0.04c2.02-3.49,4.02-2.58,6.54-1.16c2.66,1.5,5.23,3.2,8.31,3.95
			c-4.28,0.93-8.5,1.63-12.04-2.05c-1.63,3.04,1.27,3.27,2.09,4.61c1,1.64,3.14,2.94,2.21,5.17c-0.86,2.07-3.18-0.22-4.64,1.45
			c1.08,2.17,2.45,4.57,3.45,7.11c0.47,1.2,1.2,3.33-1.3,3.33c-4.82-0.02-4.63,4.09-4.52,6.53c0.14,3.11-0.84,3.76-3.18,3.1
			c-2.31-0.65-3.08,0.91-4.3,2.63c-1.51-4.55,0.64-8.99-1.44-13.47c6.72,1.84,7.9-3.09,10.09-7.68c-2.61,0.57-3.76,2.24-5.18,3.51
			c-1.79,1.6-3.3,3.39-5.73,0.64c-1.06-1.2-2.54-1.32-3.2,0.99c-0.47,1.63,1.16,6.16,0.81,6.82c-1.59,2.98,3.11,2.9,2.09,5.17
			c-1.18,2.63-3.56,2.62-5.94,2.7c-2.79,0.1-4.31,0.95-2.11,3.86c0.75,0.99,0.68,2.08,0.38,3.3c-0.76,3.06,1.41,3.02,3.21,3.29
			c1.58-2.04-2.9-2.87-0.47-4.8c2.04-1.63,3.32,0.1,4.8,1.05c2.38,1.53,5.16,1.79,7.72,1.24c3.48-0.75,2.89,1.12,2.55,3.11
			c0,0,0.15-0.17,0.15-0.17c-3.31,1.35-2.83,3.61-1.19,5.83c1.61,2.18,2.75,4.03-1.17,4.97c1.31,2.03,3.02,2,4.58,1.94
			c6.34-0.25,7.48,0.69,8.35,7.23c-0.56,0.01-1.12,0.01-1.68,0.02c-1.58-0.48-3.19-0.84-4.47-2.04c-0.33-0.31-0.72-1.46-1.43-0.52
			c-4.69,6.18-4.91-0.91-8.32-3.21c1.29,3.56-2.8,7.27,3.19,8.47c0.29,0.06,0.75,0.33,0.76,0.52c0.16,2.29-2.65,4.18,0.23,7.18
			c1.26,1.31-2.65,4.02-6.54,3.99c9.69,7.3-1.34,11.84-0.51,17.93c-2.71-0.5-1.87-2.27-2.28-3.35c-0.44-1.17,1.68-2.97-0.67-3.71
			c-2.06-0.65-2.03,1.77-3.15,2.53c-2.51,1.69-4.61,3.44-2.63,6.82c-0.44,0.48-0.88,0.97-1.33,1.45c-1.31-0.65-2.39-0.13-2.95,0.99
			c-1.61,3.2-3.37,5.97-7.67,4.93c-0.27-0.07-0.68,0.04-0.9,0.22c-1.02,0.86-0.19,12.32,0.91,13.2c0.95,0.76,2.01,1.53,3.06,0.42
			c1.38-1.44,2.69-2.57,4.68-1.12c2.04,1.49,4.3,3.07,4.13,5.85c-0.38,6.09,2.22,9.93,7.65,12.61c2.41,1.19,3.4,4.41,3.85,6.96
			c0.87,4.92,3.37,8.55,7.07,11.58c0.51,0.42,1.45,0.74,1.53,1.21c1.41,9.12,11.75,13.78,11.65,23.79
			c-0.04,4.35,2.42,7.79,6.73,9.64c3.72,1.59,3.75,5.36,4.14,8.53c1.4,11.54,6.23,21.59,12.78,30.97
			c4.39,6.28,8.94,12.49,9.59,20.51c0.7,8.59-3.6,16.38-10.78,19.69c-5.65,2.61-14.3,0.27-20.02-5.46
			c-2.86-2.87-4.83-6.33-6.32-10.07c-4.18-10.51-9.36-20.53-15.17-30.23c-0.42-0.71-0.92-1.4-1.51-1.97
			c-3.51-3.41-6.24-6.93-5.5-12.44c0.59-4.41-2.97-6.81-6.1-9.15c3.76-3.99,0.91-7.25-1.13-10.64c-2-3.31-4.42-6.32-5.14-10.39
			c-1.7-9.59-10.28-14.35-15.72-21.3c-1.01-1.3-4.03-2.16-5.41-0.23c-3.17,4.41-5.51,1.16-8.64-0.28c2.34-1.69,4.18-0.89,6.4,0.14
			c-0.82-4.3-3.56-4.31-6.65-4.25c-2.3,0.05-5.5,1.59-6.21-2.53c0.99-0.21,3.08,0.56,2.76-0.72c-0.47-1.93-2.08-3.63-3.42-5.25
			c-0.31-0.38-1.79-0.34-2.24,0.05c-1.01,0.9-0.2,1.75,0.61,2.4c0.85,0.67,3.11,0.53,1.46,2.6c-2.19,1-4,0.76-4.51-1.88
			c-0.53-2.74-2.94-1.42-4.32-1.92c-1.27-0.46-0.65,1.6-0.77,2.54c-0.28,2.18-2.23,2.09-3.61,2.83c-3.42,1.81-7.47,3.09-7.31,8.14
			c-0.7,0.34-0.93,0.94-0.9,1.67c-3.48-0.6-3.53-2.54-1.81-4.95c1.26-1.75,2.86-3.26,4.1-5.02c1.85-2.61,0.16-4.52-1.81-5.86
			c-2.62-1.77-2.33,1.31-3.1,2.33c-1.58,2.07-6.77,0.57-8.26-2.65c-0.96-2.08-1.82-4.08-5.26-5.38c2.03,3.76,3.49,6.59,5.06,9.37
			c1.43,2.54,0.88,3.64-2.13,3.34c-2-0.2-4.39-0.81-2.55,2.83c0.45,0.9-0.62,2.7-1.95,3.13c-1.51,0.49-1.64-1.25-2.37-2.04
			c-1.14-1.23-1.9-4.15-3.84-2.88c-2.21,1.44-1.1,3.78,0.72,5.41c1.27,1.14,1.97,2.64,0.4,3.77c-1.73,1.25-2.64-0.56-3.32-1.73
			c-0.55-0.95-0.78-2.17-0.88-3.3c-0.5-5.6-0.85-6.14-6.18-4.22c-2.63,0.95-6.86,1.02-6.63,5.77c0.06,1.31-1.21,1.29-2.2,1.49
			c-0.95,0.19-2.48,0.34-2.7,0.92c-2.4,6.28-7.51,3.77-12.27,3.82c2.18-2.46,2.4-7.38,7.62-3.92c1.19,0.79,2.66-1.17,3.47-2.35
			c2.7-3.96,5.89-7.57,8.11-11.87c0.54-1.05,1-4.99,3.48-0.82c0.71,1.2,3.21,0.5,4.31-0.92c1.31-1.68,1.68-3.69,0.34-5.55
			c-0.54-0.76-1.47-1.41-2.35-1.74c-2.31-0.87-6.53-0.97-4.18-4.58c1.55-2.39,3,2.61,5.75,2.14c-1.4-2.48-3.71-5.52,1.65-5.94
			c-0.69-2.53-3.58-0.3-3.53-2.28c0.05-1.91,2.09-1.63,3.49-1.83c1.42-0.2,2.77-0.48,2.18-2.42c-0.65-2.11-1.63-0.6-2.57-0.23
			c-1.67,0.64-2.85-0.17-3.8-1.5c-0.52-0.73-0.76-2.04-2.12-1.4c-1.09,0.51-1.23,1.52-0.88,2.55c0.51,1.49,0.3,2.77-1.36,3.1
			c-1.41,0.28-1.93-1.1-2.47-2.08c-0.97-1.73-2.11-3.45-2.05-5.54c0.07-2.23-1.09-3.17-3.09-2.72c-2.53,0.57-0.84,2.01-0.6,3.33
			c0.84,4.51,2.66,8.39,6.27,11.32c0.86,0.7,1.38,1.44,0.55,2.5c-0.81,1.04-1.67,0.89-2.49,0.05c-0.69-0.71-1.33-1.48-2-2.22
			c-4.21,6.97-4.2,6.96,2.49,11.33c1.5,0.98,2.72,2.46,1.51,4.15c-1.17,1.64-3.33,1.19-4.48,0.06c-4.23-4.16-4.96-2.19-4.53,2.34
			c0.24,2.53-1.27,2.11-3.12,2.36c-6.69,0.88-13.47,1.66-19.72,4.46c-1.34,0.6-1.85,0.01-2.35-0.75c-1.11-1.67-2.29-3.47-0.95-5.5
			c0.5-0.76,1.75-1.03,2.26-1.8c1.27-1.91,5.42-0.8,4.92-3.8c-0.64-3.85-1.16-8.02-4.07-11.08c-2.22-2.34-6.12-1.29-6.86,1.78
			c-0.38,1.58-0.98,3.13-2.67,3.08c-1.91-0.06-1.11-1.96-1.45-3.12c-1.81-6.09-5.36-11.45-11.04-13.8c-2.5-1.03-5.86-1.55-8.82-2.37
			c-1.59-0.44-1.42,1.48-2.18,2.22c-1.36-0.94-1.37-2.22-0.72-3.08c3.32-4.36,6.55-8.83,10.32-12.78c1.55-1.62,4.42-1.55,6.68-2.97
			c2.54-1.6,3.57-6.44,8.11-4.94c0.27,0.09,2.79-2.15,0.54-3.37c-1.93-1.05-1.32-2.77-1.97-4.35c-3.23,0.81,0.93,7.27-5.62,6.51
			c-2.93-0.34-6.91,1.5-11.27-0.34c4.16,6.69,1.09,13.01-5.73,13.65c-3.24,0.31-3.23,1.18-1.22,3.49c-2.22,0.75-4.64-0.12-7.12,1.5
			c3.4,1.74,3.52,4.81,3.48,7.94C661.03,333.24,660.96,333.76,660.9,334.28z M273.11,106.45c-0.08,0.13-0.15,0.27-0.25,0.38
			c-0.03,0.03-0.15-0.02-0.23-0.03c0.19-0.15,0.38-0.3,0.57-0.46c-0.36-1.02-0.05-1.45,1.04-1.22c2.03-0.15,3.87-1.18,6.13,0.09
			c2.73,1.53,4.57-1.58,6.91-2.39c0.22-0.08,0.39-0.97,0.23-1.32c-0.14-0.29-1.05-0.6-1.19-0.47c-3.89,3.8-8.01,0.5-11.91,0.16
			c-0.9,1.47,1.1,2.66-0.07,3.88C273.92,105.54,273.51,106,273.11,106.45z M483.31,347.66c-0.9-1.38-3.81-2.66-0.17-4.25
			c1.26-0.55,0.99-1.56,0.45-2.46c-0.32-0.52-0.83-1.24-1.56-0.76c-2.11,1.4-3.11,3.63-2.79,5.96c0.35,2.54,2.33,2.27,4.19,1.4
			c0.13,1.49,2.54,2.68,0.78,4.34c-0.92,0.87-2.72,1.24-1.07,2.82c1.02,0.98,2.82,1.28,3.65,0.26c1.85-2.29,4.68-4,5.52-8.3
			C488.97,349.28,486.15,347.71,483.31,347.66z M751.83,351.86c-0.28,0.34-0.42,0.63-1.09,0.53c-1.46-0.22-2.56-2.8-4.31-0.83
			c-1.54,1.73,1.18,1.84,1.28,2.98c0.04,0.46,0.14,1.08-0.1,1.37c-0.68,0.82-1.61,0.41-2.2-0.07c-1.26-1.03-2.31-1.68-2.19,0.73
			c0.08,1.47-2.74,2.84-0.29,4.25c1.65,0.95,3.38,0.83,5.13-0.34c5.08-3.38,5.12-3.32,3.62-8.75c0.73,0.14,1.48,0.7,2.18-0.03
			c0.04-0.04-0.08-0.34-0.2-0.42C752.83,350.71,752.23,350.97,751.83,351.86z M425.35,346.63c2.56,0.58,1.46-0.48,0.79-1.61
			c-0.78-1.31-3.23-1.94-1.76-4.25c1.81-2.83,1.13-3.21-1.79-1.93c-0.8,0.35-2.11-0.47-3.03-0.71c-0.39,1.94-0.6,3.76-1.15,5.47
			c-0.38,1.2-0.92,2.61-2.79,2.05c-1.09-0.32-2.94-1.75-2.93,0.59c0,1.98,1.62,3.66,3.98,3.63c1.8-0.02,3.59-4.29,5.09-0.91
			c1.34,3-3.69,1.04-4.25,3.42c-0.05,0.22-0.56,0.32-0.82,0.52c-3.02,2.18-2.08,4.89-0.91,7.55c1.27,2.88,2.6,3.1,3.86-0.05
			c0.04-0.1,0.65-0.09,0.89,0.04c4.28,2.34,4.31-1.39,4.63-3.61c0.44-3.1,0-6.29-0.85-9.36
			C424.67,347.19,425.01,346.91,425.35,346.63z M701.19,337.99c1.59,0.25,3.36,0.12,3.57-1.67c0.24-2.01-1.71-1.59-2.92-1.59
			c-2.94,0-4.1-1.31-2.91-4.04c1.23-2.81,3.68-5.61-1.9-6.57c-1.15-0.2,0.12-1.55,0.41-2.39c1.56-4.47-4.64-1.99-4.82-5.27
			c-0.04-0.79-1.31-0.05-1.77,0.62c-2.45,3.56-6.25,6.99-1.77,11.54C692.71,332.28,695.35,337.22,701.19,337.99z M220.17,109.29
			c1.33,1.29,1.43,4.76,2.89,3.85c2.12-1.32,2.34-0.84,2.9,0.86c0.31,0.95,0.58,2.17,1.84,1.63c0.78-0.34,1.6-1.36,1.76-2.19
			c0.41-2.12,0.45-4.32,0.66-6.69c1.79,0.95,1.37,3.63,3.66,3.32c0.4-0.05,1.11-0.56,1.08-0.76c-0.28-1.75-0.17-3.97-1.21-5.07
			c-1.18-1.24-3.78,0.04-4.24,1.1C227.62,109.65,224.08,109.26,220.17,109.29z M226.23,125.58c1.02-1.77,1.73-3.27,3.71-1.33
			c3.04,2.99,4.83,2.11,4.92-2.18c0.01-0.61,0.26-1.66,0.59-1.75c5.32-1.42,0.64-4.07,0.85-6.24c-2.06,3.51-2.24,8.71-8.13,8.17
			c-1.47-1.3,1.39-4.9-1.44-4.64c-2.38,0.22-1.36,3.54-1.18,5.6C225.6,123.83,225.89,124.43,226.23,125.58z M459.07,346.66
			c-0.8,2.91,0.06,4.5,2.03,5.53c1.27,0.67-0.08,4.61,3.67,2.49c2.28-1.29,2.61-1.98,1.55-4.19c-0.5-1.06-0.09-2.87,1.84-2.58
			c1.67,0.25,2.27-0.33,1.74-1.76c-0.56-1.52-1.94-0.55-2.31-0.03C465.1,349.56,462.22,348.25,459.07,346.66z M168.48,274.2
			c-1.49,1.19,0.29,3.15-1.72,3.99c-3.13,1.32-1.93,3.38-0.34,5.05c1.09,1.14,2.64,2.61,4.27,1.18c1.84-1.63,2.59-3.82,0.92-6.14
			C170.66,276.95,169.64,275.7,168.48,274.2z M521.49,71.78c0.86-2.73,1.65-5.23,2.44-7.72c0.67-2.11,0-3.4-2.23-3.89
			c-2.65-0.58-3.26,1.29-3.44,3.11C517.97,66.35,518.73,69.19,521.49,71.78z M654.65,310.74c0.59,2.95,0.23,4.58-3.13,4.15
			c-1.88-0.24-3.92,0.91-3.28,3.15c0.59,2.04,2.06,3.46,4.9,2.3C657.18,318.71,657.88,316.42,654.65,310.74z M767.17,119.72
			c-0.32,0.23-0.74,0.48-1.1,0.79c-1.76,1.52-0.45,3.03,0.15,4.42c1.01,2.34,3.02,1.63,4.65,0.99c1.44-0.57,3.4-1.17,3.22-3.19
			c-0.09-1.03-0.89-2.12-2.28-0.48c-1.4,1.65-2.85,1.59-3.17-1C768.53,120.37,768.41,119.64,767.17,119.72z M227.69,339.84
			c-3.4-2.24-4.07-2.34-5.34-0.66c-3.1,4.11,0.54,6.5,2.46,9.45c1.77-1.9,1.9-4.12,0.87-6.04
			C224.41,340.23,224.19,340.32,227.69,339.84z M708.21,319.28c-1.96,1.08-5.54-0.11-5.25,3.9c0.1,1.36,0.22,3.02,2.11,2.57
			c2.24-0.53,4.65-1.24,4.84-4.23C709.97,320.35,709.99,319.06,708.21,319.28z M490.19,334.38c-0.36,0.21-1.08,0.38-1.14,0.69
			c-0.63,2.99-1.64,5.81-3.02,8.55c-0.37,0.73,0.83,1.23,1.59,1.55c1.16,0.49,1.44-0.18,1.48-1.11c0.11-2.57,1.66-4.58,2.61-6.82
			C492.34,335.74,492.07,334.7,490.19,334.38z M416.84,59.76c2.73-0.45,5.48-0.81,8.19-1.38c1.41-0.3,1.79-1.69,1.21-2.74
			c-0.58-1.05-2.91-0.66-2.94-0.56C422.36,58.64,418.67,57.36,416.84,59.76z M839.56,219.04c3.8,0.77,8.35-3.91,8.67,3.69
			c1.34-2.32,2.54-4.11,0.83-5.17C846.23,215.8,843.16,216.35,839.56,219.04z M649.16,76.2c-0.2,0.94-0.73,2.13,0.79,2.3
			c0.69,0.08,2.13-0.68,2.1-0.82c-0.34-1.6-0.77-3.21-1.43-4.7c-0.51-1.17-1.45-1.01-2.45-0.32c-0.83,0.58-2.67,0.64-1.88,2.07
			c1.26,2.28,0.54-1.04,1.75-0.82C649.94,74.28,649.74,74.98,649.16,76.2z M208.34,113.67c-1.49,3.98-0.06,6.11,3.02,7.95
			C211.43,118.56,211.11,116.02,208.34,113.67z M608.5,101.49c-1.68-2.55-2.75-4.18-3.9-5.93c-1.83,2.07-2.65,4.36-3.01,7.02
			C603.54,101.15,605.2,99.42,608.5,101.49z M477.2,349.84c-1.3,0.27-2.28,1.28-1.84,2.36c0.57,1.39-0.21,3.72,1.65,4.09
			c1.76,0.35,2.43-1.36,2.27-2.98C479.14,351.9,479.06,350.31,477.2,349.84z M653.97,95.61c-1.34-1.06-3.82,0.63-3.45-2.04
			c0.44-3.13-1.32-1.42-2.12-0.89c-1.13,0.75-2.11,2.06-0.92,3.3C649.37,97.92,651.53,97.73,653.97,95.61z M686.65,313.79
			c-1.77,0.43-4.16,0.03-4.37,2.86c-0.06,0.81,1.01,2.05,1.14,1.88c1.39-1.99,4.64-1.37,5.45-3.64
			C689.31,313.61,687.61,313.88,686.65,313.79z M724.36,341.84c-1.86-2.26-2.95-4.45-5.39-4.82c-0.9-0.14-0.94,1.27-0.72,2.01
			C719.05,341.72,720.99,342.48,724.36,341.84z M668.51,96.5c-1.96,2.36-1.14,4.88-1.18,7.27c-0.01,0.76,0.41,1.33,1.16,1.26
			c0.6-0.06,1.55-0.47,1.19-1.22C668.59,101.56,670.02,98.91,668.51,96.5z M655.02,103.77c-3.46-1.77-5.49-1.22-6.86,2.19
			C650.92,106.59,652.7,105.62,655.02,103.77z M662.35,94.05c-1.35,1.65-4.24,2.23-3.83,3.73c0.7,2.55,3.71,0.97,5.61,2.32
			C664.16,97.62,663.86,95.89,662.35,94.05z M758.16,116.43c1.09-0.38,2.94,0.49,3.02-1.58c0.09-2.36-2.26-1.45-3.38-2
			c-1.55-0.76-2.25,1.15-2.29,2.25C755.44,116.85,757.16,116.13,758.16,116.43z M822.34,303.9c4.78,2.08,5.6,1.62,5.56-2.95
			C825.68,301.25,823.93,302.2,822.34,303.9z M301.78,85.87c0.04-1.03-0.39-1.86-1.36-1.56c-1.7,0.51-2.66,1.93-3.01,3.61
			c-0.18,0.89,0.56,1.75,1.41,1.56C300.64,89.04,301.17,87.33,301.78,85.87z M163.29,204.33c1.73-1.54,1.26-3.71,2.36-5.11
			c0.74-0.95,0.42-1.5-0.39-1.9c-0.56-0.28-1.28-0.44-1.89-0.37c-1.3,0.14-0.8,1.04-0.68,1.85
			C162.94,200.54,163.08,202.3,163.29,204.33z M594.14,321.95c-0.49-0.98-0.68-1.61-1.06-2.09c-1.28-1.62-3.09-5.03-4.31-3.89
			c-2.69,2.51,3.13,1.75,2.64,4.31C591.29,320.85,592.26,322,594.14,321.95z M644.74,329.11c-5.03-4.87-5.81-0.72-8.12,1.97
			C639.79,330.74,641.21,328.33,644.74,329.11z M219.17,114.4c-3.09-0.87-3.85,0.77-4.53,2.55c-0.46,1.22-0.42,2.56,0.89,2.89
			c2,0.51,1.53-1.34,1.43-2.25C216.78,115.93,218.03,115.43,219.17,114.4z M612.03,332.6c1.04-0.01,1.83-0.64,1.56-1.48
			c-0.35-1.11,0.11-2.98-1.77-3.09c-1.13-0.07-1.71,0.93-1.72,2.03C610.1,331.39,610.85,332.21,612.03,332.6z"/>
		<path class="st0" d="M501.11,402.69c0.68-2.59,1.2-5.92,2.44-8.95c1.95-4.72,6.33-4.81,10.56-4.49c2.29,0.17,4.54,0.94,6.82,1.32
			c2.62,0.44,6.66-0.8,4.21,4.6c-0.78,1.72,1.65,3.04,2.51,4.6c1.4,2.53,2.36,4.95-1.18,6.58c-0.96,0.44-1.18,1.38-1.67,2.23
			c-2.14,3.64-12,7.39-16.02,6.35C505.84,414.16,501.1,407.01,501.11,402.69z"/>
		<path class="st0" d="M534.42,374.47c5.48-3.41,9.16-7.1,11-12.36c0.43-1.23,1.79-1.49,3.17-1.88c2.04-0.57,2.56,4.89,5.78,0.63
			c2.28-3.02,3.45,0.99,4.93,3.18c3.6,5.3,3.33,11.49,5.11,17.17c0.76,2.44-0.76,2.5-2.26,2.68c-4.13,0.51-8.3,1.52-12.39,1.26
			c-4.27-0.27-6.85-4.1-9.65-6.92C538.71,376.81,537.64,375.19,534.42,374.47z"/>
		<path class="st0" d="M640.26,382.47c2.44,1.26,3.3,2.79,4.72,2.45c8.41-1.98,10.56,5.41,14.59,9.81c1.36,1.49,2.34,3.14,5.09,3.44
			c-4.24,3.26-7.94,6.45-11.98,9.13c-4.05,2.69-8.36,2.3-11.93-1c-2.29-2.12-5.91-4.5-6.32-6.62c-0.67-3.48-0.03-8.15,3.62-10.77
			C640.1,387.43,641.68,386.05,640.26,382.47z"/>
		<path class="st0" d="M677.94,359.91c-3.96,5.67-8.82,10.55-14.31,14.62c-2.4,1.78-5.72-0.08-8.06-1.13
			c-4.04-1.81-9.73-0.38-12.24-5.64c1.2-1.24,2.6-0.69,3.81-0.98c1.45-0.36,3.74,0.5,1.93-2.82c-1.32-2.42,1.98-3.59,3.53-3.06
			c3.77,1.29,4.47-0.92,4.37-3.44c-0.14-3.45,1.65-3.01,3.69-2.33c1.24,0.42,2.64,0.9,3.52,1.79c4.06,4.14,8.74,4.32,13.84,2.56
			C677.81,359.59,677.79,359.74,677.94,359.91z"/>
		<path class="st1" d="M801.97,121.43c-0.03,0.57-0.06,1.15-0.08,1.72c-1.94,0.01-3.37-1.15-4.88-2.13l0.06,0.03
			c-0.27-1.1,0.28-1.98,0.93-2.71c0.75-0.84,1.29-1.6,0.12-2.42c-1.09-0.75-1.36,0.42-1.79,0.96c-0.98,1.23-1.94,1.57-2.33-0.25
			c-0.46-2.15-1.06-2.95-3.24-1.54c-1.08,0.7-1.79-0.29-1.92-1.44c-0.23-2.1,0.1-4.26,2.01-5.26c1.48-0.78,1,1,1.32,1.76
			c0.3,0.69,9,2.43,9.54,1.99c1.02-0.81,0.72-2.35,0.16-2.61c-3.08-1.46-0.78-3.67-0.92-5.48c-0.11-1.52,0.96-2.01,2.33-1.65
			c1.36,0.35,1.63,0.93,1.01,2.46c-1.18,2.92,0.49,2.82,2.76,2.33c2.33-0.51,4.16-3.25,7.41-0.03c1.91,1.9,5.68-2.2,9.5-3.42
			c-1.16,2.67-0.34,5.27-4.25,5.93c-1.74,0.29-1.62,4.08-1.76,6.29c-0.13,2.04,1.71,1.22,2.97,1.22c1.57,0.01,0.9,1.37,1.02,2.22
			c0.26,1.8-0.24,4.18-1.87,4.03c-3.84-0.36-5.57,2.06-7.76,4.25c-0.45,0.45-1.58,0.22-2.4,0.31c0,0,0.05,0.14,0.05,0.14
			c-0.79-2.09,0.76-3.79,1.05-5.72c0.23-1.52,1.84-2.94,0.25-4.46c-1.99-1.9-1.52-3.41,0.45-4.85c2.57-1.87,1.95-3.82,0.42-5.99
			c-4.08,2.89-7.57,5.89-9.99,9.97C801.3,118.53,799.8,119.88,801.97,121.43z"/>
		<path class="st0" d="M684.24,387.88c4.03-2.11,7.27-5.43,12.34-3.73c3.36,1.12-0.12-2.72,2.49-2.98c0.07,4.72,1.69,8.73,6.2,11.46
			c2.06,1.24,1.06,3.19-1.51,3.54c-1.63,0.22-3.18,0.39-4.33,1.98c-3.91,5.41-10.07,5.01-13.82-0.69c-1.92-2.91-1.46-7.2-5.27-9.11
			c-0.18-0.09-2.19-1.91-0.86-3.24c0.62-0.62,1.81-1.06,2.69-0.98C684.27,384.31,683.6,386.38,684.24,387.88z"/>
		<path class="st0" d="M29.73,297.35c-2.02-0.11-4.78,0.45-5.92-2.59c-1.08-2.88,0.86-4.72,2.72-6.34c3.03-2.65,6.4-4.7,10.65-4.56
			c3.32,0.1,5.85,1.61,6.62,4.9c0.77,3.28-1.33,5.26-4.03,6.6C36.74,296.86,33.45,297.2,29.73,297.35z"/>
		<path class="st1" d="M149.72,258.69c-2.03,0.25-2.56-2.68-4.25-1.27c-1.4,1.17-0.15,2.39,0.53,3.48c0.64,1.03,1.33,2.23-0.21,2.87
			c-2.28,0.95-4.83,2.01-7.16,0.83c-1.5-0.75-0.86-3.78-0.24-3.9c5.69-1.1,3.78-7.14,6.84-10.07c2.78-2.66,6.06-3.65,9.26-5.11
			c2.55-1.16,3.49,1.06,4.83,2.39c2.27,2.24-0.11,4.33-0.64,6.2c-0.54,1.89-2.49,0.21-3.82-0.14
			C150.89,252.92,149.9,255.35,149.72,258.69z"/>
		<path class="st1" d="M680.85,85.16c-0.06,2.98,3.96,4.78,2.34,8.25c-0.39,0.84-0.09,2.18-1.41,2.28
			c-1.01,0.08-2.41-0.62-2.37-1.43c0.18-4.08-3.07-2.67-5.03-3.09c0.87-4.39-0.18-9.99,7.39-8.48c-0.26-2.55-2.85-3.61-1.88-6.03
			c2.93,1.15,5.87,2.3,8.83,3.46c-0.09,2.74-7.11,0.6-2.51,6.1c-2.36-0.85-3.56-1.28-4.76-1.71c-0.4,0.03-0.79,0.07-1.19,0.1
			C680.46,84.8,680.66,84.98,680.85,85.16z"/>
		<path class="st1" d="M385.9,60.14c-0.67-0.05-1.34-0.09-2-0.14c-3.39-2.11-2.04-9.42-8.77-7.5c-0.24-2.7,2.97-5.92-1.84-7.07
			c-0.91-0.22-0.21-1.42,0.47-1.93c1.05-0.77,2.33-1,3.05,0.18c0.66,1.09,0.89,2.48,1.16,3.76c0.44,2.13,0.64,4.74,3.55,4.44
			c2.55-0.26,6.81,3.22,7.28-2.75c0.09-1.13,0.97-1.24,1.83-0.97c1.58,0.51,3.26,1.01,4.01,2.67c0.53,1.18-1.03,1.03-1.23,1.44
			C391.74,55.74,385.92,55.2,385.9,60.14z"/>
		<path class="st1" d="M711.95,102.05c-0.41,0.02-0.81,0.04-1.22,0.06c-2.7-2.21-2.35-5.71-3.4-8.59c-0.23-0.64,0.3-3.84,2.99-2.19
			c1.53,0.94,2.97,0.74,4.06-0.42c1.32-1.4,0.42-2.73-0.65-3.91c-0.54-0.6-1.26-1.34-0.23-2.03c0.92-0.62,1.68,0.08,1.92,0.87
			c0.54,1.77,3.5,2.78,1.68,5.36c-0.26,0.37-0.01,1.69,0.31,1.81c5.99,2.36,0.34,5.56,1.28,8.25c-2.95,0.24-1.11-3.99-3.61-3
			C713.71,98.78,711.43,99.53,711.95,102.05z"/>
		<path class="st0" d="M518.67,372.98c1.58-2.97,5.2-3.8,8.08-3.72c1.74,0.04,3.82,3.02,4.95,5.11c0.75,1.39-5.9,8.56-7.27,8.05
			C520.49,380.94,519.67,377.28,518.67,372.98z"/>
		<path class="st1" d="M525.53,331.5c-0.83,1.93-2.49,2.76-4.29,2.98c0.08,2.46,4.46,3.68,2.05,5.51c-1.79,1.36-3.24-1.81-4.26-3.58
			c-2.46-4.23-4.37,0.84-6.97,0.23c-0.81-2.7,1.53-3.9,3.08-5.21c4.65-3.95,12.09-2.66,15.4,2.35c0.63,0.96,1.87,1.5,0.6,2.76
			c-0.97,0.96-2.11,1.83-3.5,1.43c-1.44-0.42-1.08-1.82-1.11-2.95C526.49,333.89,526.68,332.71,525.53,331.5z"/>
		<path class="st1" d="M172.2,114.45c2.09-0.89,3.84-1.89,5.73-2.37c1.7-0.44,4.15-3.62,5,1.49c0.22,1.35,5.27,0.79,8.11,0.39
			c0.8-0.11,1.18-2.71,2.39-0.41c0.7,1.33-0.1,2.24-1.09,2.91c-1.53,1.03-3.29,1.43-5.08,1.84c-1.13,0.26-3.36-0.88-3.07,1.89
			c0.05,0.46-0.63,1.08-0.88,0.65C180.85,116.59,174.81,118.84,172.2,114.45z"/>
		<path class="st1" d="M857.94,326.96c-2.47-1.54-3.99,1.3-6.73,1.11c2.27,2.57,6.26,2.63,6.85,6.59c-2.38-0.16-3.95-1.91-6.25-1.58
			c-1.1,0.16-4.57-1.04-1.23-3.57c1.6-1.21-0.16-1.46-0.66-2c-1.31-1.42-1.83-3.16-1.88-5c-0.02-0.75,0.42-1.51,0.65-2.27
			c2.29,1.63,5.01-0.63,7.18,0.65c2.05,1.21,2.85,3.2,1.36,5.54c-0.04,0.07,0.39,0.44,0.6,0.67L857.94,326.96z"/>
		<path class="st1" d="M254.78,79.3c-4.86,1.55-4.05-3.38-5.56-5.33c-0.76-0.99-0.8-2.38-2.33-1.74c-1.76,0.74-0.25,1.93,0.01,2.88
			c0.47,1.73,2.03,3.13,1.59,5.12c-0.21,0.98-0.52,2.06-1.88,1.83c-0.98-0.17-2.59-0.96-2.26-1.53c2.53-4.3-2.1-2.99-3.26-4.34
			c-0.4-0.46-1.01-0.73-1.53-1.09c3.46-3.68,7.51-6.72,12.06-3.91c1.26,0.77,4.15,4.66,3.04,8.18L254.78,79.3z"/>
		<path class="st1" d="M141.95,152.23c0.13-2.84,0.08-4.85,0.37-6.8c0.22-1.46,0.71-3.12,2.87-2.31c1.74,0.65,2.43,1.67,0.84,3.24
			c-0.12,0.11-0.28,0.28-0.27,0.41c0.76,5.95-0.71,9.43-7.79,7.78c-2.02-0.47-1.06,2.33-2.43,3.66c-0.73-2.63-4.86-4.38-2.08-7.19
			C135.69,148.75,139.16,148.96,141.95,152.23z"/>
		<path class="st1" d="M863.94,263.93c-8.58,0.17-11.34-1.92-11.86-8.95c0,0-0.15,0.17-0.15,0.17c6.84-1.85,12.49,2.37,11.9,8.88
			L863.94,263.93z"/>
		<path class="st1" d="M863.84,264.03c1.63,0,3.25,0,5.11,0c-0.25-2.86-1.3-5.28-3.13-7.56c10.39,1.49,10.39,1.49,13.6,4.26
			c-2.39,1.87-4.73,3.56-7.99,3.07c-0.95-0.14-1.91-0.52-1.79,1.24c0.13,1.84-1.38,2-2.77,1.88c-1.78-0.16-3.09-0.87-2.92-2.98
			C863.94,263.93,863.84,264.03,863.84,264.03z"/>
		<path class="st1" d="M150.97,144.98c0.57-2.42,3.4-1.75,4.38-3.66c0.51-1,2.52-0.4,0.01-2.08c-3.16-2.13,2.06-3.87,1.74-6.58
			c-0.15-1.26,2.17-0.75,3.44-0.59c0.73,0.09,1.47,0.7,1.13,1.28c-2.38,4.12-0.28,10.06-5.49,13.12c-1.15,0.68-1.97,1.14-3.04,0.5
			C152.32,146.47,151.7,145.66,150.97,144.98z"/>
		<path class="st1" d="M254.67,79.38c2.07,0.01,1.3-1.95,1.91-2.92c0.69-1.09,0.79-2.66,2.5-2.63c0.51,0.01,1.28,0.53,1.48,1
			c0.61,1.49,0.43,3.3-0.84,4.07c-2.53,1.53-3.4,2.21,0.09,3.72c1.58,0.68,1.51,3.08-0.14,4.21c-1.83,1.25-3.99,2.94-6.19,0.63
			c-1.22-1.28-2.65-2.84-0.51-4.6c1.14-0.94,3.22-1.36,1.82-3.57C254.78,79.3,254.67,79.38,254.67,79.38z"/>
		<path class="st1" d="M1003.7,15.36c-5.47,5.25-11.89,8.49-18.66,11.08c-0.81,0.31-1.61,0.44-2.16-0.48
			c-0.45-0.75,0.05-1.41,0.52-1.72C989.66,20.09,996.62,17.51,1003.7,15.36z"/>
		<path class="st1" d="M343.07,63.57c0,0,0.02-0.06,0.02-0.06c-1.79,1.48-2.16,3.47-2.03,5.64c0,0,0.08-0.02,0.08-0.02
			c-2.31-1.81-2.69-3.15-1.77-6.08c0.47-1.51-1.13-1.33-1.65-1.59c-1.27-0.62-2.96-0.3-3.97-1.66c-0.29-0.39-0.49-0.84-0.97-1.7
			c3.87-0.04,5.86-1.7,6.32-5.61c0.32-2.76,0.94-2.73,5.11-1.87C339,52.78,338.73,55.86,343.07,63.57z"/>
		<path class="st1" d="M288.99,76.27c-0.2,0.25-0.4,0.49-0.6,0.74c-0.73-0.05-1.51-1.9-2.12-0.18c-0.44,1.25-0.34,2.8,1.86,2.19
			c0,0-0.07-0.11-0.07-0.11c-0.39,1.44,0.38,3.8-1.96,3.82c-1.74,0.02-0.98-2.14-1.51-3.26c-0.62-1.32-0.55-3.19-1.48-4.1
			c-4.86-4.74-2.95-7.32,2.31-8.52C286.52,69.75,287.76,73.01,288.99,76.27z"/>
		<path class="st1" d="M875.34,170.29c-0.12-3.61,1.56-3.21,3.97-1.94c4.11,2.15,4.76,7.71,9.96,8.99
			c-5.19,2.77-6.44,1.78-9.45-2.71c-0.84-1.26-2.11-3.98-4.59-4.37L875.34,170.29z"/>
		<path class="st1" d="M769.92,372.68c-0.02-0.73,0.2-1.33,0.9-1.67c1.7,0.96,3.31,0.04,4.76-0.53c2.13-0.83,3.72,0.36,4.88,1.4
			c1.64,1.47,0.05,3.4-0.49,5.01c-0.68,2.07-2.53,0.82-3.87,0.94C772.38,378.16,770.32,376.39,769.92,372.68z"/>
		<path class="st1" d="M618.98,76.05c-2.53,4.52-2.54-1.13-3.98-0.99c2.33-2.98,4.37-6.27,7.1-8.83c1.78-1.67,4.94,0.49,7.31-1.69
			c-0.94,5.93-0.96,5.67-6.22,6.1C620.41,70.88,619.93,73.88,618.98,76.05z"/>
		<path class="st1" d="M513.49,344.77c-1.48,3.97-4.13,4.1-7.13,3.82c0.03-2.93,2.01-3.99,4.09-4.42c1.66-0.34,3.33,0.46,3.74-2.33
			c0.23-1.54,2.19-0.91,3.37-0.25c1.29,0.72,3.09,1.66,2.1,3.3c-0.87,1.43-1.13,3.82-3.29,4.01
			C514.08,349.1,514.1,346.97,513.49,344.77z"/>
		<path class="st1" d="M199.29,101.14c-0.48,0.62-0.79,1.23-1.28,1.59c-0.85,0.62-1.41,0.05-2.05-0.6
			c-4.23-4.34-4.19-4.29-7.16,0.64c-0.41,0.67-1.66,1.01-2.58,1.16c-1.06,0.18-1.96-0.44-2.23-1.53c-0.21-0.83,0.05-1.59,0.77-2.2
			c2.66-2.23,6.27-3.07,8.57-5.89c0.55-0.68,1.7-0.43,2.18,0.33C196.83,96.72,197.99,98.89,199.29,101.14z"/>
		<path class="st1" d="M480.11,362.01c2.63-0.08,5.99,5.85,4.92,7.96c-0.49,0.96-1.23,0.72-2.08,0.64
			c-3.57-0.34-5.75-3.83-9.48-4.01c-0.97-0.04-0.91-1.88,0.08-2.32C475.77,363.31,478.14,362.67,480.11,362.01z M481.32,366.44
			c-1.16-0.24-2.49-1.18-3.53,0.53C479.2,368.1,480.24,367.09,481.32,366.44z"/>
		<path class="st1" d="M787.54,96.16c-1.54-0.09-2.71,0.04-2.67-1.44c0.05-1.61,1.04-2.64,2.57-2.28c2.97,0.7,5.11-0.62,7.27-2.29
			c0.65-0.5,2.53-0.86,2.32-0.56c-1.7,2.5,4.19,4.17,0.55,6.79c-1.01,0.73-1.33,1.99-3.07,1.56c-1.92-0.48-0.66-3.8-2.91-3.27
			C790.08,95.04,788.74,96.3,787.54,96.16z"/>
		<path class="st1" d="M615.12,373.1c-1.7,1.52-2.78,3.89-5.26,2.33c-1.45-0.91-2.55-2.11-4.35-1.16c-0.71,0.37-1.38,1.13-2.12,0.24
			c-0.79-0.95-0.22-1.91,0.38-2.67c1.61-2.07,4.5-2.66,5.9-5.03c0.11-0.19,1.17-0.15,1.26,0.04
			C612,369.02,612.88,371.3,615.12,373.1z"/>
		<path class="st1" d="M542.74,76.4c-1.71-5.51,3.16-16.68,8.43-20.49C548.3,62.88,545.76,69.05,542.74,76.4z"/>
		<path class="st1" d="M305.32,55.43c-0.91,3.06,0.65,4.31,2.77,5.64c1.48,0.93,3.69,2.61,2.05,4.76c-1.59,2.09-3.02,0.32-4.48-0.91
			c-0.9-0.76-2.48-0.67-3.66-1.17c-1.01-0.42-2.66-1.08-1.83-2.34c0.58-0.88-0.74-3.35,2.1-2.76
			C304.28,59.06,303.23,56.32,305.32,55.43z"/>
		<path class="st1" d="M833.83,311.04c0.44-0.48,0.88-0.97,1.33-1.45c1.2,0.7,0.3,2.24,1.18,3.13c1.9-1.01,2-2.86,2.43-4.57
			c0.33-1.35,1.82-1.58,2.03-0.61c0.94,4.53,3.6,1.66,5.66,1.42c1.22,3.48-0.25,4.4-3.42,4.07c-0.91-0.09-2.23-1.16-2.83,0.75
			c-0.3,0.95,1.37,3.33-1.5,2.67c-2.16-0.5-5.18-0.24-4.89-3.92C833.84,312.03,833.82,311.53,833.83,311.04z"/>
		<path class="st0" d="M863.44,227.15c2.84-0.19,3.8,1.97,4.42,4.08c0.34,1.15-5.61,5.87-6.6,5.34c-2.69-1.46-1.15-4.44-1.87-6.65
			C859.07,228.96,860.7,226.21,863.44,227.15z"/>
		<path class="st1" d="M214.96,103.06c-0.68-0.02-1.35-0.05-2.03-0.07c1.97-2.8-0.6-4.19-1.98-5.76c-1.02-1.17-3.06-1.74-1.75-3.82
			c0.77-1.22,0.93-3.81,3.64-1.23c0.88,0.84,0.47-2.52,2.45-3.86c-0.93,2.82,4.7,5.16-0.81,7.95
			C213.86,96.59,215.6,100.64,214.96,103.06z"/>
		<path class="st1" d="M858.03,127.98c-4.71,0.14-0.14,8.94-7.43,5.28c-1.97-0.99-4.43-2.18-2.81-4.73
			C850.06,124.92,853.46,126.23,858.03,127.98z"/>
		<path class="st1" d="M270.49,71.21c-0.49-0.06-0.99-0.11-1.48-0.17c2.35-6.52,2.9-6.82,9.06-4.65c-2.06,2.26-5.9,4-2.24,7.87
			c1.41,1.5-0.72,1.66-1.48,2.21c-1.92,1.38-1.5-0.8-2.11-1.43C271.21,73.95,274.1,71.09,270.49,71.21z"/>
		<path class="st1" d="M660.9,334.28c0.07-0.52,0.13-1.04,0.2-1.56c1.61,1.79,3.55,1.31,5.48,0.79c2.24-0.61,4.19-0.38,5.97,2.08
			c-5.25-0.25-3.59,2.02-2.07,4.44c0.59,0.93,2.26,2.21,0.29,3.21c-1.45,0.74-1.55-1.11-2.3-1.76
			C665.83,339.19,664.49,335.53,660.9,334.28z"/>
		<path class="st1" d="M905.52,193.18c1.29,0.08,2.83-0.18,3.37,1.39c0.49,1.42,0.41,2.98-0.52,4.26c-1.12,1.54-2.44,1.43-3.76,0.17
			c-0.23-0.22-0.57-0.51-0.83-0.49c-1.93,0.13-4.84,3.15-5.24-0.7C898.41,196.65,902.01,193.1,905.52,193.18z"/>
		<path class="st1" d="M224.19,71.79c-1.24,2.22,0.34,5.71-2.62,7.75c-1.01,0.7-2.15,1.12-3.17,0.32c-0.98-0.76,0.05-1.51,0.5-2.01
			c1.05-1.17,0.22-1.94-0.2-3c-1.24-3.14,0.82-4.92,3.17-6.3C223.2,67.78,224.18,69.04,224.19,71.79z"/>
		<path class="st1" d="M235.67,89.04c-1.39-0.58-0.49-2.13-1.42-2.9c-1.83-1.5-1.91-3.59-0.86-5.37c1.21-2.04,3.35-0.66,4.98-0.46
			c2.3,0.27,3.62,2.11,4.45,4.18c0.28,0.69,0.01,1.34-0.66,1.61c-0.37,0.15-1.1,0.14-1.29-0.1c-4.04-4.96-3.36,0.16-4.27,1.96
			C236.39,88.37,235.98,88.68,235.67,89.04z"/>
		<path class="st1" d="M257.8,94.69c-0.37,0.92-0.77,2.6-3.14,1.67c-1.22-0.48-2.49-0.86-3.78-1.11c-2.08-0.39-3.72-1.83-3.38-3.6
			c0.46-2.43,2.61-0.87,4.11-0.75C254.15,91.11,257.84,88.89,257.8,94.69z"/>
		<path class="st1" d="M857.06,181.78c2.29,1.12,5.1,1.61,5.73,4.73c0.3,1.46,0.89,3.33-0.56,4.14c-2.2,1.22-4.07-0.54-5.87-1.64
			c-1.43-0.87-2-2-1.09-3.75c0.6-1.17,2.65-1.63,1.8-3.53C857.08,181.72,857.06,181.78,857.06,181.78z"/>
		<path class="st1" d="M673.93,341.49c3.92,2.32,4.8-3.31,8.34-1.86c-1.07,2.71-3.64,4.74-3.31,8.19c0.15,1.56-1.8,3.79-3.76,2.83
			c-2.34-1.15,0.63-2.27,0.65-3.25C675.88,345.77,674.86,344.11,673.93,341.49z"/>
		<path class="st1" d="M575.04,346.01c-5.35,0.22-4.85-6.07-8.68-7.9c-1.43-0.69,1.62-1.56,2.34-2.72c0.79-1.27,2.52-0.33,2.66,1.32
			c0.29,3.51,3.83,5.68,3.66,9.32C575.02,346.03,575.04,346.01,575.04,346.01z"/>
		<path class="st1" d="M905.93,186.12c-4.71,2.39-8.74,3-12.8,3.46c-1.13,0.13-2.67,0.03-2.93-1.24c-0.31-1.48,1.49-2.14,2.31-1.88
			C896.72,187.83,900.66,183.21,905.93,186.12z"/>
		<path class="st1" d="M138.9,166.01c2.58-2.45,5.21-3.38,7.82-4.36c1.45-0.55,2.99-1.16,3.53,1.04c0.47,1.92-0.28,3.19-2.38,3.49
			C145.12,166.55,142.37,167.1,138.9,166.01z"/>
		<path class="st1" d="M143.99,171.95c-1.39,1.33,2.18,4.13-1.2,4.69c-3.78,0.63-6.55-1.32-9.26-5.11c3.74,1.35,6.32-1.99,9.54-0.44
			l-0.06-0.12c0.01,0.74-0.23,1.75,1.13,1.1L143.99,171.95z"/>
		<path class="st1" d="M616.62,353.44c-4.78,1.24-1.63,3.76-0.81,6.29c-2.32-2.06-5.1-1.68-7.58-2.36
			c-1.07-0.29-2.56-0.84-2.41-2.15c0.18-1.59,1.73-1.35,2.79-0.98C611.52,355.26,612.93,349.31,616.62,353.44z"/>
		<path class="st1" d="M642.03,62.86c-0.45,1.24-0.9,2.47-1.35,3.71c-1.35-0.29-2.12-1.97-3.76-1.56l0.12,0.1
			c-0.55-3.84-3.67-6.84-3.51-11.06C637.27,56.18,639.09,60.07,642.03,62.86z"/>
		<path class="st1" d="M163.56,110.67c3.16,1.15,4.79,3.32,6.47,5.79c-1.96,0.98-4.27,0.3-5.36,2.94c-0.71,1.73-2.25-0.16-3.02-0.96
			c-0.57-0.6-3.01-1.55-0.1-2.64C163.73,114.98,162.39,112.49,163.56,110.67z"/>
		<path class="st1" d="M150.96,138.26c-5.98-2.21-5.63-4.94-3.02-8.13c0.83-1.01,1.99-1.82,2.05-3.29c0.05-1.04,0.06-2.18,1.55-1.7
			c0.91,0.29,1.86,0.82,2.5,1.51c0.88,0.95,0.1,1.81-0.61,2.54c-0.23,0.24-0.46,0.55-0.75,0.65
			C148.59,131.21,147.68,133.74,150.96,138.26z"/>
		<path class="st1" d="M297.07,63.72c1.03-0.31,1.19,0.78,1.57,0.84c1.84,0.29-0.5,6.09,3.91,2.98c0.18-0.13,0.52,1.37,0.27,2.09
			c-0.43,1.19-0.68,3.15-2.06,2.99c-1.75-0.2-2.87-2.03-3.77-3.53c-0.81-1.34-1.8-2.85-0.92-4.57
			C296.27,64.13,296.81,63.92,297.07,63.72z"/>
		<path class="st1" d="M150.35,198.24c0.01,1.77-0.93,3.13-2.33,2.56c-1.89-0.77-4.88-0.59-5.14-3.5c-0.13-1.42-0.29-3.9,2.19-3.56
			C147.62,194.07,149.61,195.68,150.35,198.24z"/>
		<path class="st1" d="M867.42,325.63c2.6-1.52,3.6-6.11,7.58-3.91c1.3,0.72,2.01,2.74,1.02,3.93
			C873.38,328.81,870.34,326.12,867.42,325.63z"/>
		<path class="st1" d="M878.85,288.48c-3.51,2.3-6.83,1.6-10.03,1.4c-1.39-0.09-1.78-1.34-1.49-2.62c0.25-1.11,0.52-2.67,2.03-2.23
			C872.42,285.93,875.39,287.2,878.85,288.48z"/>
		<path class="st1" d="M693,349.99c-0.08-1.88-0.07-3.46,2.15-3.31c2.06,0.14,4.38,0.73,4.57,3c0.19,2.26-2.01,4.14-3.87,4.36
			C693.21,354.35,693.49,351.48,693,349.99z"/>
		<path class="st1" d="M130.56,153.61c0.24,5.33,4.2,6.68,6.97,9.82c-2.59,0.79-6.03,1.17-6.22-0.06
			C130.88,160.6,127.88,158.01,130.56,153.61z"/>
		<path class="st1" d="M306,424.34c-2.51-2.87-3.91,0.84-5.6,0.56c-2.33-0.39-2.92-2.8-3.84-4.71c1.64-1.06,5.85,4.86,5.27-2.01
			c-0.02-0.26,2.35-0.57,2.22,1.25C303.92,421.31,305.42,422.3,306,424.34z"/>
		<path class="st0" d="M504.45,358.94c-0.5,1.61-0.24,4.47-2.24,3.56c-1.87-0.85-5.67-0.73-5.41-3.15c0.23-2.1,3.85-2.49,6.01-3.15
			C504.67,355.63,503.81,358.11,504.45,358.94z"/>
		<path class="st1" d="M581.95,539.3c-1.86,0.05-3.4-0.46-3.31-2.68c0.09-2.17,1.59-3.31,3.59-3.42c2.02-0.11,2.91,1.17,2.92,3.17
			C585.16,538.56,583.85,539.23,581.95,539.3z"/>
		<path class="st1" d="M247.22,391.19c-0.65,2.41-2.09,4.31-4,6.21c-1.84-2.5-3.41-5.7-1.63-8.01c1.55-2.01,3.95,0.54,5.69,1.9
			C247.29,391.3,247.22,391.19,247.22,391.19z"/>
		<path class="st1" d="M721.94,79.62c3.06-0.91,3.53-4.63,5.28-3.06c1.37,1.23,4.72,1.87,3.78,5.11c-0.28,0.96-0.38,1.97-1.59,2.23
			c0.88-3.74-3.5,0.39-3.51-2.38C725.89,79.97,725.48,79.88,721.94,79.62z"/>
		<path class="st1" d="M610,68.08c-0.58,1.46,0.94,1.89,1.45,2.79c0.51,0.9,1.09,1.92,0.6,2.71c-0.63,1.03-1.75,0.38-2.63-0.01
			c-2.71-1.22-4.05,1.53-6.13,2.16c-0.16-2.66,4.12-7.31,6.86-7.52L610,68.08z"/>
		<path class="st1" d="M874.48,201.14c1.68,1.05,2.75-0.83,4.2-1.06c1.12-0.18,3.22-2.34,3.36,0.03c0.1,1.64,3.06,1.69,1.45,3.24
			c-1.44,1.39-3.34,0.79-5.14,0.29C876.74,203.19,876.85,199.98,874.48,201.14z"/>
		<path class="st1" d="M721.82,99.04c0.89-3.95,2.82-5.76,5.14-7.26c0.9-0.58,2.09-0.82,2.64,0.18c0.8,1.46-1.58,0.86-1.51,1.76
			C728.39,97.66,725.11,97.34,721.82,99.04z"/>
		<path class="st1" d="M154.25,116.9c1.58,4.06,3.72,7.12,3.6,11.04C157.09,124.26,149.52,123.44,154.25,116.9z"/>
		<path class="st1" d="M606.64,53.88c1.36-1.35,3.05-1.72,3.5-3.56c0.3-1.25,0.29-3.35,2.44-3.04c0.93,0.14,1.32,1.39,1.4,2.44
			c0.13,1.75-0.1,3.45-1.91,4.18C610.54,54.5,608.88,54.85,606.64,53.88z"/>
		<path class="st1" d="M415.54,386.24c2.05-1.75-1.79-6.04,2.61-6.26c2.02-0.1,3.76,1.75,3.63,3.49
			C421.48,387.2,417.23,383.92,415.54,386.24z"/>
		<path class="st1" d="M407.95,35.25c-0.51,3.29,0.38,6.23-2.43,7.29c-1.15,0.44-2.49-1.36-2.71-2.96
			C402.33,35.96,405.41,36.6,407.95,35.25z"/>
		<path class="st1" d="M870.74,277.09c-2.2,2.64-2.9,5.87-6.55,6.14c-0.84,0.06-1.74,1.52-2.44,0.11c-0.27-0.54,0.1-1.73,0.58-2.26
			C864.31,278.86,866.48,276.83,870.74,277.09z"/>
		<path class="st1" d="M222.4,58.84c2.04,0.35,4.15,1.27,5.15-1.89c0.39,3.26,0.6,7.01-1.53,7.5
			C223.47,65.02,222.81,61.6,222.4,58.84z"/>
		<path class="st1" d="M854.33,286.51c1.98,2.08,3.92,3.88,1.14,6.36c-0.81,0.72-2.37,2.15-2.79,1.23
			C851.47,291.46,853.27,289.11,854.33,286.51z"/>
		<path class="st1" d="M868.46,253.61c2.78-1.57,6.19-2.03,6.97-5.82c1.92,1.28,2.01,2.95,1.89,4.7
			C874.37,251.99,872.26,257.34,868.46,253.61z"/>
		<path class="st1" d="M875.23,170.27c-1.27,0.75-1.51,3.21-3.94,2.1c-1.57-0.72-3.04-1.32-3.59-3.11
			c-0.23-0.76,0.13-1.38,0.75-1.63c1.59-0.64,2.81,0.37,4.17,0.99c0.99,0.46,1.15,2.2,2.71,1.67
			C875.34,170.29,875.23,170.27,875.23,170.27z"/>
		<path class="st1" d="M665.38,351.8c-1.74-0.15-2.19-1.17-2.27-2.39c-0.07-1.04-0.05-2.11,1.56-1.39c0.4,0.18,0.97,0.29,1.37,0.16
			c1.94-0.63,3.61-2.44,5.9-1.3c0.15,0.08,0.1,1.14-0.08,1.22C669.49,349.11,667.1,350.06,665.38,351.8z"/>
		<path class="st1" d="M267.42,58.67c-1.17-2.12-1.55-4.4-1.05-6.74c0.3-1.37,0.43-3.17,2.64-2.88c1.19,0.16,2.58,0.6,2.86,1.69
			c0.54,2.12-1.56,1.71-2.62,2.01c-3.76,1.09,1.04,3.75-1.01,5.08C267.97,58.12,267.7,58.4,267.42,58.67z"/>
		<path class="st1" d="M166.06,92.14c-2.08-1.07-3.98-2.05-6.31-3.24c2.46-1.6,4.47-2.9,6.47-4.2
			C164.79,87.21,166.8,89.59,166.06,92.14z"/>
		<path class="st1" d="M168.84,125.87c-0.96-0.34-2.06-0.68-1.34-1.65c1.45-1.98,2.99-3.98,4.85-5.54c1.45-1.22,2.17,0.33,1.97,1.51
			C173.79,123.31,170.86,124.22,168.84,125.87z"/>
		<path class="st1" d="M654.82,353.07c-1.4-0.31-3.2-0.38-2.68-1.82c0.94-2.56,3.74-2.31,5.93-2.84c0.87-0.21,2.17,0.23,1.88,0.94
			C659,351.63,656.46,351.96,654.82,353.07z"/>
		<path class="st1" d="M213.13,69.99c-1.63-2.37-2.44-3.55-3.21-4.67c-1.59,0.08-0.1,2.55-1.74,2.12c-1.49-0.39-1.65-1.96-1.5-3.27
			c0.18-1.61,1.57-1.55,2.67-1.37C212.76,63.36,213.04,65.91,213.13,69.99z"/>
		<path class="st1" d="M750.39,101.96c1.84,1.48,3.82,2.82,5.4,4.53c0.36,0.39-1.71,1.62-2.13,1.18c-1.64-1.69-5.11-0.42-5.64-3.4
			C747.81,103.14,749.15,102.45,750.39,101.96z"/>
		<path class="st1" d="M822.06,102.82c-1.83-0.33-2.2-1.23-2.01-2.28c0.29-1.61,1.66-3.37,2.88-2.6c1.41,0.89,4.58-0.29,4.24,2.53
			C826.74,104.1,822,98.32,822.06,102.82z"/>
		<path class="st1" d="M868.67,180.2c-2.05-0.09-3.84-0.31-3.83-2.85c0.01-1.99,1.32-1.94,2.7-1.64c1.86,0.41,4.34,0.42,4.4,2.94
			C871.99,180.81,869.81,179.95,868.67,180.2z"/>
		<path class="st1" d="M360.38,35.84c2.22,1.1,2.66,3.9,4.61,5.37c0.64,0.48,1.12,1.24,0.48,2.1c-0.52,0.7-1.56,1.36-2.01,0.63
			c-1.38-2.3-3.92-3.86-4.39-6.71C358.96,36.53,359.49,36.05,360.38,35.84z"/>
		<path class="st1" d="M629.37,356.68c0.09-0.07,0.19-0.08,0.3-0.02c0.19,1.58,1.92,0.97,2.59,1.79c0.84,1.02,3.52-1.22,3.06,1.59
			c-0.25,1.5-2.12,1.39-3.34,1.43c-1.73,0.06-3.27-0.54-3.29-2.71C628.67,358,629.98,357.65,629.37,356.68z"/>
		<path class="st1" d="M443.04,387.02c-2.6-0.61-2.99-2.95-3.54-5.16c-0.23-0.92,0.33-2.05,1.03-1.77c2.22,0.89,3.58,2.81,4.31,5.05
			C445.22,386.36,444.4,386.93,443.04,387.02z"/>
		<path class="st1" d="M866.02,245.84c1.69-1.88,0.6-6.5,4.08-5.61c3.54,0.9,1.54,3.53-0.19,4.93
			C869.09,245.81,867.39,244.76,866.02,245.84z"/>
		<path class="st1" d="M860.98,274.98c0.56-0.01,1.12-0.01,1.68-0.02c-1.6,6.23-2.68,6.92-7.88,4.85
			C855.89,276.94,859.67,277.48,860.98,274.98z"/>
		<path class="st1" d="M462.84,393.08c-1.98-0.6-6.39,2.35-4.2-3.61c0.46-1.24,0.73-2.23,2.21-1.88c1.41,0.34,1.21,1.29,0.59,2.27
			C460.33,391.63,463.42,391.26,462.84,393.08z"/>
		<path class="st1" d="M895.56,256.54c-5.32,5.64-5.59,5.65-9.65,0.92C889.04,257.87,891.72,257.65,895.56,256.54z"/>
		<path class="st1" d="M934.47,173.27c-2.88,1.45-4.73,2.46-6.64,3.32c-1.05,0.47-2.37,0.85-2.81-0.77c-0.4-1.47,0.85-2.09,1.92-2.4
			C928.96,172.81,931.08,172.67,934.47,173.27z"/>
		<path class="st1" d="M901.88,220.11c-2.35,1.63-4.09,3.76-6.54,1.09c-0.49-0.53-1.49-1.41-0.62-1.99
			C897.12,217.62,899.28,218.93,901.88,220.11z"/>
		<path class="st1" d="M913.05,204.23c-2.92,1.84-4.82,4.05-7.8,2.26c-0.66-0.4-1.52-1.2-1.51-1.8c0.01-1.2,1.29-1.44,2.23-1.37
			C908.05,203.46,910.13,203.84,913.05,204.23z"/>
		<path class="st1" d="M583.05,378.07c3.62-2.9,7.43-1.91,10.33-3.63c0.9-0.53,1.74,0.12,1.66,1.06c-0.06,0.71-0.99,2-1.14,1.95
			C590.57,376.25,587.33,378.52,583.05,378.07z"/>
		<path class="st1" d="M709.89,83.02c-0.13,1.52-1.28,0.98-1.84,1.39c-0.99,0.74-3.19,1.89-3.15,1.51c0.25-2.3-2.28-3.6-1.78-5.74
			c0.12-0.51,0.82-0.98,1.35-1.28c0.64-0.37,1.66-0.06,1.49,0.56C704.95,83.14,708.36,82.23,709.89,83.02z"/>
		<path class="st1" d="M913.82,218.29c-1.75-0.27-4.11,0.3-4.04-2.44c0.04-1.65,1.68-1.99,3.01-1.65c1.83,0.47,4.72,0.37,4.9,2.46
			C917.88,218.81,915.18,217.83,913.82,218.29z"/>
		<path class="st1" d="M840.37,138.68c2.83-1.24,4.94-4.05,8.59-3.61C848.43,142.17,843.12,137.69,840.37,138.68z"/>
		<path class="st1" d="M610.14,68.21c-0.57-2.84,0.45-5.75-0.78-8.64c3.58,1.33,2.75,5.03,5,6.84c-1.43,1.23-2.89,1.46-4.36,1.66
			C610,68.08,610.14,68.21,610.14,68.21z"/>
		<path class="st1" d="M888.38,231.1c-2.28,0.13-3.46-0.53-3.65-2.36c-0.15-1.46,0.23-2.72,2.01-2.7c1.75,0.02,3.48,0.63,3.86,2.43
			C891,230.33,889.32,230.82,888.38,231.1z"/>
		<path class="st1" d="M775.53,114.68c-1.46-2.89-2.4-5.31-0.51-8.02C778.89,109,778.53,111.51,775.53,114.68z"/>
		<path class="st1" d="M758.32,382.57c-2.27,1.56-4.33,1.15-6.38,0.57c-1.66-0.47-1.43-1.65-0.71-2.64c0.54-0.75,1.56-2.48,2.4-0.65
			C754.61,381.99,756.78,381.22,758.32,382.57z"/>
		<path class="st1" d="M706.52,447.14c-0.09,1.54-0.97,2.01-2.36,1.81c-1.72-0.25-2.7-1.33-2.87-2.97
			c-0.14-1.39,0.72-2.21,2.12-2.12C705.41,443.99,706.23,445.36,706.52,447.14z"/>
		<path class="st1" d="M223.51,88.11c0.88,1.27,3.57,0.21,3.53,2.58c-0.04,2.27-1.88,2.36-3.54,2.28c-1.27-0.06-2.84-0.11-2.63-2.01
			C221.03,89.51,221.45,88.02,223.51,88.11z"/>
		<path class="st1" d="M542.88,349.52c0.16-0.74,0.32-1.47,0.48-2.21c2.15,3.04,5.73-0.12,8.05,2.02
			C548.72,352.12,545.86,352.27,542.88,349.52z"/>
		<path class="st1" d="M871.82,313.52c1.12-0.25,2.26-0.15,1.98,1.26c-0.39,1.95-1.8,3.11-3.84,3.29c-1.34,0.12-2.42-0.41-2.29-1.88
			C867.89,313.65,870.24,314.1,871.82,313.52z"/>
		<path class="st1" d="M263.32,55.23c-0.68,2.16-1.98,3.66-4.06,3.87c-2.27,0.23-1.61-1.91-2.07-3.15
			c-0.64-1.73,0.54-1.72,1.29-1.06C260.05,56.28,261.94,52.48,263.32,55.23z"/>
		<path class="st1" d="M669.3,379.9c1.25-1.1,1.47-1.47,1.74-1.51c2.33-0.35,4.29-2.84,6.94-1.24c0.59,0.36,0.91,1.1,0.22,1.59
			C675.76,380.46,673.07,380.18,669.3,379.9z"/>
		<path class="st1" d="M620.89,373.64c0.29,1.14,0.4,1.31,0.36,1.44c-0.81,2.27-1.56,4.63-4.41,5.11c-0.25,0.04-0.91-0.61-0.88-0.89
			C616.24,376.34,618.32,375.05,620.89,373.64z"/>
		<path class="st1" d="M123.34,133.69c3.53-0.22,4.69,2.22,5.32,4.3c0.57,1.89-2.32,2.45-3.24,0.52
			C124.73,137.09,124.16,135.61,123.34,133.69z"/>
		<path class="st1" d="M872.98,296.67c-0.15,0.84,0.26,2.27-1.38,1.84c-1.65-0.44-4.1-0.16-4.42-2.38
			c-0.25-1.79,1.66-2.16,3.16-2.29C872.34,293.66,872.82,295.02,872.98,296.67z"/>
		<path class="st1" d="M965.42,193.15c0.64,2.71,1.18,4.98-1.32,6.08c-1.29,0.57-2.9-0.68-2.96-1.94
			C961.01,194.56,964.04,195.03,965.42,193.15z"/>
		<path class="st0" d="M869.29,181.66c1.02,0.27,2.71-0.55,2.61,1.34c-0.09,1.77-1.4,2.55-3.12,2.35c-1.37-0.16-2.93-0.82-2.88-2.21
			C865.97,180.86,868.18,182.21,869.29,181.66z"/>
		<path class="st1" d="M648.43,57.95c0.88,0.15,2.45-0.3,2.17,1.15c-0.34,1.78-1.53,3.51-3.47,3.76c-1.5,0.19-2.27-1.29-2.29-2.67
			C644.81,57.67,646.89,58.17,648.43,57.95z"/>
		<path class="st1" d="M151.11,114.71c0.1,1.2-0.06,2.24-1.03,2.15c-3.08-0.27-2.11-3.19-2.9-4.93c-0.74-1.62,0.58-2.87,1.86-2.49
			C151.84,110.27,148.94,113.68,151.11,114.71z"/>
		<path class="st1" d="M537.16,328.18c-1.16,1.52-0.21,3.99-2.7,5.34c-1.4-1.66-2.09-3.63-1.04-5.54c1.12-2.03,2.5,0.4,3.82,0.31
			C537.25,328.29,537.16,328.18,537.16,328.18z"/>
		<path class="st1" d="M878.22,229.72c-1.05,1.95-2.93,2.02-4.6,2.44c-1.02,0.25-2.19,0.31-1.95-1.2c0.27-1.69,1.25-3.31,2.95-3.64
			C876.18,227,877.2,228.43,878.22,229.72z"/>
		<path class="st1" d="M888.41,410.96c-1.68,0.07-2.75-0.66-2.82-2.18c-0.08-1.84,1.41-1.9,2.74-1.85c1.34,0.05,2.84,0.34,2.8,1.99
			C891.09,410.52,889.58,410.77,888.41,410.96z"/>
		<path class="st1" d="M665.9,59.63c-1.42-4.55,1.89-5.65,6-7.68C669.7,55.31,666.41,56.47,665.9,59.63z"/>
		<path class="st1" d="M689.4,49.1c1.59-0.08,2.82,0.17,2.93,1.62c0.15,1.97-1.49,1.96-2.77,1.85c-1.23-0.11-3.13-0.08-2.99-1.83
			C686.68,49.27,688.42,49.2,689.4,49.1z"/>
		<path class="st1" d="M903.2,163.91c0.83,0.41,2.93-0.6,1.94,1.62c-0.54,1.22,0.59,3.79-1.58,3.48c-1.35-0.19-3.15-2.19-3.44-3.63
			C899.81,163.85,901.99,164.1,903.2,163.91z"/>
		<path class="st1" d="M848.68,336.66c-0.23,2.01-1.35,3.27-3.58,4.09c-0.34-2.43-0.65-4.7-0.98-7.09c2.75,0.03,1.72,4.22,4.68,3.14
			L848.68,336.66z"/>
		<path class="st1" d="M498.3,364.09c-1.36,1.51-2.69,3.65-3.23,3.47c-1.59-0.54-4.65,0.39-4.53-2.49c0.1-2.6,2.47-0.95,3.79-1.2
			C495.37,363.67,496.51,363.96,498.3,364.09z"/>
		<path class="st1" d="M393.56,29.53c-1.54,0.4-1.55,3.18-3.72,2.52c-1.04-0.32-2.31-1.08-1.91-2.5c0.49-1.78,2.31-1.67,3.66-1.78
			C392.16,27.72,393.64,28.01,393.56,29.53z"/>
		<path class="st1" d="M657.97,66.68c-0.6-2.07-4.51-0.05-3.9-3.06c0.22-1.1,1.24-2.98,2.52-2.48
			C658.85,62.03,657.93,64.47,657.97,66.68z"/>
		<path class="st1" d="M857.82,327.09c1.14-0.15,2.15-1.95,3.43-0.23c1.71,2.3,0.6,4.36-0.47,6.63c-1.91-0.41,0.15-3.22-2.3-3.4
			c-3.33-0.25,0.62-2.23-0.54-3.15C857.94,326.96,857.82,327.09,857.82,327.09z"/>
		<path class="st1" d="M848.79,336.8c3.62-2.44,5.53,0.47,7.91,2.28c-4.31,3.97-5.4-1.54-8.02-2.41
			C848.68,336.66,848.79,336.8,848.79,336.8z"/>
		<path class="st1" d="M379.47,32.62c1.86,3.57-4.03,4.05-2.21,7.96C373.53,37.22,373.53,37.22,379.47,32.62z"/>
		<path class="st1" d="M571.21,72.91c-2.51,0.4-4.39,0.7-6.31,1c-0.33-2.25,0.73-3.96,2.45-4.4
			C569.67,68.91,569.43,71.71,571.21,72.91z"/>
		<path class="st1" d="M143.06,171.09c0.13-0.1,0.32-0.17,0.39-0.3c1.16-2.35,2.88-1.82,4.49-0.72c0.9,0.62,1.02,1.85,0.31,2.67
			c-1.76,2.02-2.72-1.1-4.26-0.79c0,0,0.15,0.12,0.15,0.12c-0.02-0.73-0.07-1.44-1.13-1.1L143.06,171.09z"/>
		<path class="st1" d="M722.57,380.87c2.12-0.51,2.56,1.52,3.2,2.81c0.51,1.03-0.66,1.92-1.64,1.93c-1.88,0.01-2.97-1.26-3.42-3.01
			C720.35,381.19,721.28,380.91,722.57,380.87z"/>
		<path class="st1" d="M168.15,106.74c1.96,1.79,4.66,2.6,7.21,5.11C170.6,112.23,168.7,110.36,168.15,106.74z"/>
		<path class="st1" d="M866.43,144.64c-0.15,2.49-1.3,3.77-3.47,3.99c-0.39,0.04-1.28-0.82-1.24-1.19
			C862,144.64,864.42,145.31,866.43,144.64z"/>
		<path class="st1" d="M307.1,58.88c-0.02-0.38-0.11-0.6-0.03-0.7c1.54-1.98,3.33-3.6,6.06-2.88c0.46,0.12,0.63,1.36,0.93,2.08
			C311.73,57.74,309.7,59.79,307.1,58.88z"/>
		<path class="st1" d="M528.27,359.75c-1.79,0.35-1.75-1.12-1.99-2.11c-0.29-1.17-0.12-2.53,1.42-2.45
			c1.26,0.07,2.73,0.82,3.04,2.12C531.15,359.07,529.14,358.97,528.27,359.75z"/>
		<path class="st1" d="M785.36,111.35c-1.13,3.06-2.71,4.41-5.22,4.62c-0.78,0.07-1.45-0.56-1.15-1.15
			C780.09,112.61,782.18,111.84,785.36,111.35z"/>
		<path class="st1" d="M849.09,148.07c-1.34,1.37-0.52,4.36-3.2,4.25c-1.06-0.04-1.73-1.43-1.55-2.19
			C844.9,147.74,847.43,148.81,849.09,148.07z"/>
		<path class="st1" d="M877.07,310.63c2.34-2.12,4.08-3.61,6.59-2.31c0.29,0.15,0.42,1.37,0.15,1.72
			C882.01,312.28,879.85,311.37,877.07,310.63z"/>
		<path class="st1" d="M677.94,359.91c-0.15-0.17-0.13-0.31,0.06-0.43c0.98-2.28,0.57-5.81,4.92-5.28
			C683.04,357.78,680.31,358.69,677.94,359.91z"/>
		<path class="st1" d="M250.02,58.2c3.05,2.04,3.68,3.93,3.01,6.21c-0.28,0.96-1.25,1.15-2.01,0.68
			C248.14,63.3,250.95,60.96,250.02,58.2z"/>
		<path class="st1" d="M741.94,87.91c-1.31,5.18-3.88,4.15-7.13,1.89C737.31,89.14,739.47,88.56,741.94,87.91z"/>
		<path class="st1" d="M145.26,102.34c-2.74-0.29-2.98-2.19-3.18-3.97c-0.12-1.06-0.42-2.73,1.16-2.76c1.69-0.03,1.49,1.2,0.81,2.43
			C143.14,99.71,145.5,100.44,145.26,102.34z"/>
		<path class="st1" d="M134.23,211.63c1.04,2.31,1.34,4.45-0.54,6.22c-0.37,0.35-1.42,0.2-1.66-0.54
			C131.23,214.82,133.8,213.71,134.23,211.63z"/>
		<path class="st1" d="M144.11,85.62c0.46-1.45,1.18-2.66,2.91-2.9c1.34-0.18,1.16,0.89,1.15,1.58c-0.03,1.41,0.3,3.23-2.02,3.1
			C145.16,87.35,144.2,86.93,144.11,85.62z"/>
		<path class="st1" d="M355.08,37.89c-0.4,1-0.3,2.82-1.92,2.86c-1.68,0.04-1.84-1.61-1.86-2.93c-0.01-1.38,0.73-2.12,2.19-1.98
			C354.64,35.95,355.36,36.42,355.08,37.89z"/>
		<path class="st1" d="M951.61,255.02c-0.54,3.62-2.84,4.39-5.72,4.09c-0.32-0.03-0.9-0.75-0.82-0.93
			C946.31,255.18,949.42,256.2,951.61,255.02z"/>
		<path class="st1" d="M587.74,389.68c-0.08,1.14,0.06,2.45-1.59,2.47c-1.07,0.01-2.08-0.58-1.73-1.73c0.3-1,1.06-2.27,1.92-2.58
			C587.71,387.34,587.51,388.86,587.74,389.68z"/>
		<path class="st1" d="M814.91,99.95c-1.2-0.12-1.85-0.99-1.8-1.96c0.08-1.63,1.21-2.67,2.78-2.99c1.03-0.21,1.55,0.55,1.41,1.49
			C817.09,97.99,816.5,99.33,814.91,99.95z"/>
		<path class="st1" d="M562.49,20.49c-1.98-3.22-2.66-5.56-2.23-8.75C562.67,14.17,562.82,16.66,562.49,20.49z"/>
		<path class="st1" d="M324.29,52.05c-1.47,2.72-4.99,1.54-5.18,4.87C317.9,52.35,317.9,52.35,324.29,52.05z"/>
		<path class="st1" d="M616.36,64.46c-2.06-4.33-0.5-6.26,3.06-8.41C618.32,59.05,617.54,61.22,616.36,64.46z"/>
		<path class="st1" d="M851.03,246.89c3.05-1.23,5.03-1.37,6.9-0.15c0.62,0.4,0.21,1.23-0.43,1.57
			C855.28,249.45,853.64,248.39,851.03,246.89z"/>
		<path class="st1" d="M680.16,66.34c2.78-1.79,3.65,1.23,5.91,2.11c-3.43,2.12-5.5,2.16-5.88-2.09L680.16,66.34z"/>
		<path class="st1" d="M786.13,102.12c-0.13,0.74,0,1.92-1.13,1.66c-1.78-0.4-2.63-1.81-2.63-3.6c0-0.84,0.46-1.63,1.34-1.81
			C784.78,98.15,786.21,100.44,786.13,102.12z"/>
		<path class="st1" d="M888.52,213.52c-2.86,0.48-5.15-0.09-7.75-1.48C885.08,210.91,885.08,210.91,888.52,213.52z"/>
		<path class="st1" d="M571.55,408.95c1.2,0.49,2.83,0.66,2.9,2.23c0.04,1.06-1.23,1.52-2.21,1.46c-1.48-0.09-2.43-0.94-2.43-2.54
			C569.82,408.9,570.74,408.99,571.55,408.95z"/>
		<path class="st1" d="M457.59,375.2c1.1,0.8,2.65,1.38,3.16,2.46c0.44,0.92-1.06,1.45-2.07,1.52c-1.56,0.11-2.58-0.57-2.6-2.26
			C456.06,375.95,456.8,375.52,457.59,375.2z"/>
		<path class="st1" d="M639.66,350.6c-2.43-3.98-0.78-5.11,2.08-5.9C642.75,347.23,640.61,348.26,639.66,350.6z"/>
		<path class="st1" d="M887.57,235.57c-4,0.3-6.55,0.7-10.11-1.22C881.26,233.99,883.78,233.55,887.57,235.57z"/>
		<path class="st1" d="M881.88,274.7c-1.49-0.25-2.13-1.23-2.21-2.69c-0.07-1.34,0.35-2.27,1.9-2.05c1.41,0.21,2.44,0.94,2.45,2.5
			C884.03,273.82,883.15,274.45,881.88,274.7z"/>
		<path class="st1" d="M154.84,102.09c0.32,1.51-0.34,1.93-1.28,1.91c-1.83-0.05-2.67-1.16-2.66-2.91c0.01-0.93-0.12-2.31,1.37-1.98
			C153.91,99.47,154.22,101.21,154.84,102.09z"/>
		<path class="st1" d="M577.03,71.11c0.7-2.58-2.35-3.64-1.17-5.74c0.38-0.68,1.91-0.29,2.54,0.55
			C579.76,67.7,578.91,69.19,577.03,71.11z"/>
		<path class="st1" d="M520.54,417.85c1.83,0.06,2.77,0.95,2.89,2.44c0.07,0.82-0.53,1.66-1.55,1.52c-1.59-0.21-2.88-0.98-2.91-2.78
			C518.94,417.91,519.98,417.95,520.54,417.85z"/>
		<path class="st1" d="M296.46,470.11c1.03,0.14,2.18,0.57,2.24,1.57c0.08,1.54-1.17,2.21-2.6,2.29c-1.11,0.06-1.98-0.43-1.87-1.66
			C294.33,471.03,295.18,470.3,296.46,470.11z"/>
		<path class="st1" d="M237.66,63.31c0.13,1.31,0.21,2.57,0.4,3.8c0.14,0.87,1.43,1.57,0.48,2.58c-0.27,0.29-0.94,0.45-1.33,0.34
			c-1.46-0.41-1.36-1.73-1.3-2.84C235.98,65.78,235.63,64.12,237.66,63.31z"/>
		<path class="st1" d="M472.06,397.11c0.11,1.45-0.63,1.95-1.8,1.93c-1.35-0.02-2.24-0.66-2.22-2.11c0.01-1.13,0.6-1.96,1.79-1.93
			C471.18,395.05,471.84,395.98,472.06,397.11z"/>
		<path class="st1" d="M559.94,346c0.48-0.03,0.96-0.06,1.44-0.09c2.09,3.09,0.82,4.47-2.71,4.9
			C558.36,348.96,561.02,347.88,559.94,346z"/>
		<path class="st1" d="M146.41,225.75c-1.12-1.35-3.86,0.79-4.29-1.97c-0.13-0.84,0.18-1.75,1.14-1.81c2.04-0.14,3.18,1.2,4.02,2.85
			C146.98,225.13,146.69,225.44,146.41,225.75z"/>
		<path class="st1" d="M268.25,57.84c0.49,0.04,0.97,0.09,1.46,0.13c0.93,0.09,2.1-0.14,2.36,1.13c0.11,0.54-0.07,1.46-0.45,1.72
			c-0.85,0.58-1.89,0.43-2.67-0.31c-0.58-0.55-1.02-1.23-1.52-1.86C267.7,58.4,267.97,58.12,268.25,57.84z"/>
		<path class="st1" d="M394.02,59.09c-0.57,1.12-1.31,2.01-2.69,2.06C391.63,59.7,392.68,59.2,394.02,59.09z"/>
		<path class="st1" d="M797.01,121.03c-0.61-0.09-0.76,0.28-0.79,0.78c0.28-0.25,0.56-0.5,0.85-0.75
			C797.07,121.05,797.01,121.03,797.01,121.03z"/>
		<path class="st1" d="M637.04,67.05c-0.43-0.01-0.85-0.03-1.28-0.04c0.08-0.87,0.09-1.78,1.27-1.91c0,0-0.12-0.1-0.12-0.1
			C636.96,65.68,637,66.36,637.04,67.05z"/>
		<path class="st1" d="M147.26,224.82c0.72,0.4,1.38,1.11,0.73,1.76c-0.85,0.84-1.21-0.23-1.58-0.83
			C146.69,225.44,146.98,225.13,147.26,224.82z"/>
		<path class="st0" d="M747.48,109.33c0.39,0.01,0.99-0.13,1.14,0.06c0.35,0.46-0.1,0.67-0.53,0.78
			C747.88,109.89,747.68,109.61,747.48,109.33z"/>
		<path class="st1" d="M680.19,66.36c0.23-0.31,0.45-0.62,0.68-0.92c0.6,0.95-0.4,0.66-0.71,0.9
			C680.16,66.34,680.19,66.36,680.19,66.36z"/>
		<path class="st0" d="M424.32,347.47c-0.02-0.41-0.04-0.82-0.06-1.23c0.36,0.13,0.73,0.26,1.09,0.39
			C425.01,346.91,424.67,347.19,424.32,347.47z"/>
		<path class="st0" d="M649.81,95.63c-0.13,0.14-0.23,0.26-0.34,0.37c-0.11-0.21-0.26-0.42-0.31-0.64c-0.02-0.08,0.2-0.21,0.31-0.31
			C649.59,95.25,649.71,95.46,649.81,95.63z"/>
	</g>
</g>
</svg>
