<?xml version="1.0" encoding="utf-8"?>
<!-- Generator: Adobe Illustrator 24.0.1, SVG Export Plug-In . SVG Version: 6.00 Build 0)  -->
<svg version="1.1" id="Vrstva_1" xmlns="http://www.w3.org/2000/svg" xmlns:xlink="http://www.w3.org/1999/xlink" x="0px" y="0px"
	 viewBox="0 0 767 262" style="enable-background:new 0 0 767 262;" xml:space="preserve">
<style type="text/css">
	.st0{fill:#950000;}
	.st1{fill:#950000;}
</style>
<g>
	<g>
		<path class="st0" d="M430.5,17.12c1.67,4.61,6.35,3.54,9.67,4.95c1.92,0.81,2.73-1.17,3.16-2.93c2.19,3.95,7.36,5.38,8.1,10.5
			c0.11,0.75,1.9-0.38,2.83-1.43c2.22-2.52,4.79-4.17,7.28-0.11c0.42,0.69,1.22,1.95,1.37,1.88c4.31-1.9,8.29,0.3,12.38,0.85
			c0.22,0.03,0.65-0.6,0.74-0.54c5.17,3.25,8.61-1.59,12.86-2.65c1.68-0.42,3.51-1.32,4.86,1.44c1.47,3.03,5.42,3.42,7.91,5.66
			c1.95,1.76,1.9-0.87,2.41-2.09c0.58-1.35-0.06-4.29,3.02-2.96c2.95,1.27,0.52,2.84-0.19,3.84c-1.35,1.9-0.33,3.01,0.85,4.34
			c3.31-1.09,0.84-6.94,5.06-6.67c1.96,0.13,4.78,0.55,5.83,3.44c-0.46,0.27-1.05,0.54-1.53,0.94c-1.19,0.97-4.33,0.69-3.03,3.26
			c1.18,2.35,2.28,0.22,3.66-0.6c1.74-1.03,4.13,1.21,6.22-0.2c1.32,0.96,2.65,1.29,3.98,0.01c3.09,0.16,6.2,0.1,8.64,2.6
			c0.92,0.94,1.77,1.65,2.52-0.67c0.3-0.94,3.87-0.47,4.74,0.78c3.01,4.34,7.46,1.74,11.12,2.66c1.87,0.47,3.94-1.33,5.5,1.74
			c0.68,1.34,4.67,2.1,5.24-0.73c1.27-6.27,4.42-2.2,6.5-1.36c3.03,1.22,5.82,3.87,8.09-1.58c1.5,4.2,2.82,7.97,8.06,6.15
			c1.49-0.52,1.35,0.92,1.57,1.82c1.23,5.11,2.19,5.28,6.63,1.14c-0.96-2.12-4.21,1.03-4.72-2c-0.28-1.69,0.79-2.87,1.95-3.82
			c1.53-1.25,2.92-1.98,4.37,0.53c1.21,2.09,3.21,3.72,4.77,5.63c0.68,0.83,1.26,1.48,2.45,1.07c1.72-0.59,4.45-3.57,3.9,1.56
			c4.73-1.56,4.43,4.19,7.5,5.17c1.94,0.62,3.26,1.14,4.35-1.35c0.7-1.62,2.4-2.91,2.95,0.41c0.03,0.16,0.1,0.31,0.15,0.46
			c4.46-1.58,7.14,4.63,11.69,2.69c0.29-0.12,0.65-0.1,0.98-0.14c-1.32-5.17,4.47-2.42,5.52-4.95c0.64-1.54,1.53-1.74,3.1-1.02
			c1.4,0.64,1.59,0.72,1.68,2.67c0.12,2.36,1.13,6.39,6.41,5.89c3.11-0.29,8.22-1.91,10.21,3.39c0.24,0.64,1.18,0.13,1.73-0.26
			c5.29-3.78,5.29-3.78,8.48,1.48c-0.9,0.58-1.12,1.34-0.03,1.77c1.16,0.45,1.85-0.26,2-1.47c0.48,0.01,0.96,0.03,1.44,0.04
			c2.74,1.73,6.97-0.7,8.92,3.22c0.22-0.58,0.44-1.16,0.66-1.75c2.75,0.22,5.39,3.06,8.29,0.37c0.15-0.14,0.66-0.01,0.94,0.12
			c2.41,1.13,2.94,1.03,4.66-0.99c1.63,1.15,0.02,2.35,0.07,3.52c0.04,1.27,0.44,2.64,1.95,1.49c2.62-1.99,2.45,1.72,4,1.73
			c0.11,0.49,0.23,0.99,0.34,1.48c-1.11,0.25-2.23,0.51-3.87,0.88c1.91,1.68,4.65,1.87,4.92,5c0.13,1.51,2.51,0.26,3.92,0.1
			c2.21-0.25,4.73-0.89,6.5-1.34c5.39-1.37,5.92,2.12,7.62,5.07c-3.37,2.59-5.87-1.4-9.5-1.49c1.89,3.4,4.11,5.21,7.24,6.56
			c9.01,3.88,18.88,3.79,28.12,6.52c1.75,0.52,3.59,0.82,5.26,1.52c3.15,1.33,5.04,3.81,5.37,7.24c0.33,3.46-1.11,6.31-4.07,8
			c-7.37,4.22-14.76,5.12-22.72,0.88c-6.91-3.68-13.58-8.75-22.31-6.96c-1.33,0.27-2.43-0.81-3.54-1.58
			c-3.78-2.59-8.18-3.61-12.57-4.57c-1.9-0.41-3.57-0.05-4.92,1.58c-2.72,3.29-6.42,2.88-9.58,1.46c-4.79-2.16-9.14-2.38-13.2,1.07
			c-2.44,2.07-5.25,2.61-7.83,1.52c-2.5-1.05-4.76-0.15-5.55,1.21c-2.3,3.96-4.6,1.9-7.07,0.71c-1.27-0.61-3.27-2.78-3.54-1.77
			c-0.61,2.26-3.99,2.8-3.07,5.68c0.8,2.52,0.94,5.98-1.53,6.57c-2.6,0.62-3.58-2.84-4.44-5.19c-0.62-1.69-1.89-3.49-0.71-5.19
			c1.48-2.13,3.59-0.36,5.55-0.19c-3.49-3.66-5.79-3.52-7.85,0.56c-1.04,2.05-1.77,4.31-2.33,6.55c-2.49,9.92-7.79,10.77-16.75,8.27
			c-6.04-1.68-11.4-0.72-16.92,1.03c-0.88,0.28-1.58-0.05-2.25,0.1c-1.94,0.44-5.96-2.91-5.3,2.7c0.03,0.24-0.72,0.74-1.16,0.83
			c-6.68,1.36-5.27,6.62-5.07,10.98c0.39,8.47,2.78,17.2,1.39,25.31c-1.71,9.97,0.59,20.17-3.3,30.05c-2.01,5.09-5.89,10-4.14,16.61
			c1.6,6.05,2.14,12.41,3.64,18.57c2.36,9.72-0.75,17.12-8.52,21.36c-6.59,3.6-18,1.75-23.59-4.21c-4.1-4.37-4.15-10.06-3.38-15.53
			c1.2-8.55,2.36-17.11,4.41-25.53c0.93-3.84,0.44-7.73-2.25-10.86c-4.29-4.98-5.34-10.8-5.51-17.15
			c-0.13-4.81,1.09-9.77-3.33-14.15c-2.94-2.92,0.57-6.92,1.84-10.24c2.3-6.01-0.88-11.76-7.1-12.02c-2.67-0.11-4.81,0.03-2.74-3.53
			c0.18-0.32,0-1-0.23-1.37c-0.37-0.58-9.54,0.4-9.51,0.99c0.15,3.83-1.8,2.18-3.27,1.26c-3.46-2.17-6.66-3.62-8.77,1.6
			c-0.18,0.46-0.98,0.67-1.5,1c-2.18-5.67-7.13-0.9-10.49-2.75c-2.7-1.49-4.79,0.78-6.78,3.56c-1.37-6.64-5.88-5.13-8.74-3.31
			c-6.16,3.92-12.83,3.13-19.4,3.44c-2.14,0.1-4.48-0.39-5.13-3.54c-0.3-1.46-1.5-4.79-4.17-1.49c-1.33,1.65-3.08,1.92-4.94,1.72
			c-3.85-0.41-7.69-1.11-9.43,3.83c-0.25,0.71-1.52,1.05-2.4,1.62c-1.84-7.24-2.36-6.67-9.93-6.84c-4.52-0.1-9.29-2.2-14.01-3.18
			c-1.26-0.26-2.42-1.18-3.61,0.06c-0.85-0.3-1.71-0.59-2.56-0.89c-0.92,0.25-1.55-1.6-2.6-0.35c0,0,0.08,0.14,0.08,0.14
			c0.71-0.33,1.07-1.01,0.5-1.49c-1.4-1.17-2.75-0.45-4.01,0.45c-0.99,0.15-1.54,0.78-1.79,1.71c-1.3-0.97-2.6-1.94-4.11-3.06
			c0.21,4.68-4.3,7.14-8.35,4.73c-0.78-0.46-1.38-1.67-2.2-0.84c-3.59,3.66-4.89,0.42-6.8-3.51c-0.13,2.86-0.19,4.24-0.26,5.7
			c-1.98,0-2.46-2.21-4.64-2.51c-0.57,1.3-1.04,3.06-2.6,3.95c-1.39,0.79-2.8,1.59-3.43-0.77c-0.3-1.12-0.31-2.5-1.92-2.4
			c-1.67,0.11-0.63,1.98-1.56,2.69c-1.32,1.01-0.7,3.33-2.62,4.02c-1.13-1.69,0.46-3.59-0.6-5.6c-4.1,5.05-8.75,5.66-14.27,2.32
			c-1.45-0.88-3.56-0.14-3.8,2.48c-0.42,4.62-3.05,6.43-7.55,4.87c-2.9-1-5.18-2.13-6.59,1.99c-0.65,1.91-2.17,1.08-3.56-0.05
			c-1.84-1.49-3.86-3.01-6.06-3.73c-3.24-1.07-4.35,0.99-3.82,4.18c-2.69-1.2-1.34-4.01-3.23-5.6c-1.55-1.31,0.15-2.42,1.92-2.54
			c0.85-0.06,2.21,0.47,2.17-1.16c-0.05-1.76-2.05-0.61-2.58-1.55c-0.83-1.45-0.96-0.98-1.75,0.15c-1.19,1.69-2.67,3.34-4.38,4.48
			c-4.62,3.05-4.7,2.94-10.8,0.33c-5.25-0.31-10.56-0.78-13.35,5.21c-0.5,0.45-1.91,0.24-1.14,1.59l0.11-0.12
			c-1.66-1.21-2.23,1.45-3.6,1.04c-1.4-0.93,0.6-3.96-2.09-3.74c-2.88,0.24-3.23,2.85-3.24,5.21c-2.35-0.13-3.36-1.97-5.03-2.64
			c0.17-0.75,0.31-1.51,0.5-2.26c0.21-0.81,3.01-0.22,1.29-1.86c-1.52-1.45-2.55-0.18-2.9,1.53c-3.33-1.13-6.48-2.03-9.52,1.04
			c-1.87,1.89-1.04-1.39-1.82-1.34c-2.11,0.14-3.22,1.6-4.47,3.25c-3.08,4.05-6.56,7.8-9.27,12.85c0.06-3.88,0.19-5.61-4.39-3.72
			c-2.22,0.92-5.83,0.7-8.75,1.64c-0.73,0.24-1.55-0.15-1.67,1.05c-0.24,2.25-1.49,0.95-2.41,0.61c-1.25-0.46-1.87-1.29-1.45-2.68
			c0.43-1.39,2.17-2.13,1.91-4.02c-2-1.09-3.3,1.39-5.12,1.1l0.09,0.11c-0.73-1.53,0.8-3.24-0.59-4.94
			c-3.01,0.93-3.89,3.57-4.5,6.25c-0.52,2.28-1.47,3.27-3.75,2.07c-0.14-0.08-0.11-0.57-0.08-0.87c0.01-0.12,0.21-0.26,0.36-0.32
			c0.06-0.03,0.27,0.09,0.29,0.16c0.05,0.29,0.17,0.79,0.06,0.86c-2.62,1.47-5.35,0.3-7.92-0.01c-1.48,3.26,4.99,4.13,1.81,7.56
			c-0.61-0.27-1.22-0.54-1.83-0.81c-1.18-0.74-2.59-1.22-3.06-2.75c-0.29-3.6-3.11-1.85-4.89-2.31c-1.87-1.43,3.57-2.85,0.27-3.55
			c-1.92-0.41-3.47-5.2-6.89-0.63c-1.23,1.64-2.05,4.82-4.81,5.55c-0.53-0.49-1.05-0.98-1.58-1.47c-5.5-2.42-6.53-2.08-8.75,2.58
			c-0.69,1.44-0.79,4.64-3.64,1.41c-0.88-1-1.45-0.39-1.44,1.79c0,1.46-1.39,2.12-2.32,2.04c-1.14-0.09-3.24,0.3-3-2.06
			c0.16-1.69-0.07-3.29-0.75-4.83c-0.1-0.23-0.47-0.34-0.75-0.53c-1.53,1.32-0.77,3.07-0.9,4.64c-0.09,1.12,0.28,2.5-1.21,2.87
			c-1.31,0.33-2.77,0.28-3.4-1.24c-1.11-2.67-2.67-1.94-4.14-0.54c-1.95,1.86,0.15,2.72,1.14,3.82c0.4,0.38,0.81,0.76,1.21,1.14
			c-2.42,1.69-4.47,4.83-8.02,2.01c2.53-0.1,2.31-1.61,1.75-3.43c-2.09,0.28-3.31,3.69-5.93,1.63c-1.56-2.14-3.16-3.66-5.27,0.23
			c-0.67-1.69-1.35-2.9-1.6-4.19c-0.32-1.6-0.21-3.92-2.52-3.09c-2.1,0.76-5.71,0.53-5.22,4.54c-1.28,0.24-2.54,0.46-3.8-0.14
			c-2.6-1.22-3.99-0.22-4.39,2.48c-1.26,0.27-3.57,0.53-3.02,1.76c1.31,2.92,5.23,4.23,5.43,8.06c0.44-0.07,0.92-0.05,1.32-0.21
			c1.9-0.8,2.02-0.83,2.1,0.84c0.16,3.15-0.7,6.65,0.39,9.41c2.4,6.07-0.42,10.59-3.2,15.25c-2.74,4.59-1.03,8.98,0.33,13.36
			c0.32,1.02,1.21,1.63,0.79,3.07c-2.02,7.06-1.67,14.43-2.25,21.67c-0.19,2.31-1.59,3.98-1.78,6.43c-0.38,4.87-5.52,1.94-7.24,1.31
			c-8.27-3.06-17.5-3.16-24.96-8.93c-5.56-4.29-10.1-13.33-8.15-19.85c0.43-1.42,0.72-2.33-0.56-3.44
			c-0.65-0.56-1.34-1.99-1.06-2.59c2-4.31,1.38-7.52-3.31-9.39c2.12-3.97-2.81-6.52-1.93-10.51c1.3-5.88-0.89-9.56-6.34-12.03
			c-1.14-0.52-1.33-1.25-1.54-2.25c-0.25-1.19-0.23-2.66-2.12-2.6c-4.53,0.14-5.15-3.83-6.85-6.62c-2.33-3.8-4.44-7.57-8.51-10.15
			c-1.64-1.05-0.91-4.8-2.48-6.96c-0.56-0.77-0.54-1.95-1.07-2.75c-0.83-1.25-1.65-3.58-3.01-0.07c-0.53,1.36-2.56,2.14-3.9,3.19
			c-0.96-0.02-1.92-0.03-2.88-0.05c0.44-2.8,3.65-5.68-0.89-8.41c-0.71-0.43,1.17-5.17,1.89-8.04c-1.52-1.31-3.61,0.76-5.24-0.57
			l0.12,0.1c0.21-1.73,3.01-1.61,2.65-3.77c-1.66-1.73-2.8,0.84-4.56,0.56c-0.36-2.78,3.88-3.25,3.08-6.51
			c-0.62-2.5,0.11-5.32-3.29-6.23l0.13,0.15c0.08-4.39-1.04-8.46-3.23-12.25c0,0,0.05,0.1,0.05,0.1
			c-3.88-3.94-3.08-10.03-6.58-14.21c-1.05-1.26,0.99-1.72,1.48-2.6c1.06-1.92,5.43-2.05,3.2-5.79c-0.33-0.55,0.19-0.85,0.71-0.88
			c5.86-0.32,5.23-5.34,6.4-8.96c1.43-4.43-1.1-9.89,3.82-13.55c0.95-0.71-0.24-3.12-0.84-4.68c-0.36-0.93-0.64-2,0.21-2.79
			c0.99-0.92,2.45-0.82,3.17-0.02c2.21,2.46,4.89,1.4,7.45,1.39c1.9-0.33,3.77-0.57,1.83-3.22c-0.83-1.13-1.22-2.58-1.81-3.89
			c0.25-0.99,0.25-1.88-0.25-2.87c-0.6-1.2-2.37-2.64-0.65-3.84c1.48-1.03,2.42,1.2,2.89,1.92c1.5,2.3,5.09,3.33,4.53,6.87
			c-0.22,1.38,0.67,1.46,1.34,1.11c3.33-1.74,6.75-3.39,9.8-5.55c1.39-0.99,1.05-4.04,0.05-4.54c-4.26-2.12-2.26-6.88-5.6-10.09
			c3.02,0,5.27,0.53,7.1-0.11c3.93-1.37-0.48-3.37,0.43-5.5c2.53-0.98,5.96,1,8.81-1c0.29-0.2,0.94,0.13,1.42,0.2
			c1.44,0.23,1.63,4.55,3.67,1.63c1.22-1.75-2.07-2.23-2.99-3.5c-1.42-1.96-0.97-4.39,0.64-5.88c1.24-1.16,2.48-2.25,5.18-0.17
			c3.8,2.94,4.92,4.77,1.73,8.51c-0.37,0.43-1.35,1.84-0.22,2.63c1.27,0.89,1.92-0.23,2.8-1.08c2.44-2.35,2.5-4.76,0.64-7.39
			c-0.73-1.04-1.86-1.93-1.36-3.38c3.55-1.39,3.28,4.92,7.21,3.15c2.14-0.96,4.37,1.88,6.89,1.03c0.42,0.36,0.84,0.72,1.26,1.08
			c-0.81,3.6,0.13,4.72,3.88,3.24c2.52-1,4.24-0.22,3.02,3.07c-0.38,1.04-1.84,2.8,0.4,3.04c1.17,0.13,2.46-1.57,2.41-3.26
			c-0.07-2.47-0.27-4.93-0.41-7.4c4.09-0.32,2.93-2.53,1.72-4.76c-0.46-0.7-0.86-1.89,0.21-1.77c0.88,0.1,3.39,0.47,2.4,2.23
			c-3.06,5.41,2.74,4.57,4.47,6.12c1.67,1.49,3.43-0.51,4.41-2.43c1.05-2.06,3.24-1.69,5.28-2.83c-1.64,5.39-0.99,6.34,3.37,5.93
			c0.96-0.09,2.22-0.02,2.23-1.37c0.01-1.14-0.28-2.46-2-2.05c-3.06,0.73-2.53-0.95-2.88-3.12c-0.28-1.74,0.14-4.37-2.11-5.58
			c-0.55-0.29-2.02,0.13-0.95-1.28c0.49-0.65,1.03-1.36,1.72-1.73c0.94-0.51,1.56,0.1,1.7,1.07c0.84,5.75,6.23,4.92,9.76,6.77
			c2.32,1.65,1.9,4.13,1.5,6.84c1.79-0.97,3.5-1.62,3.1-3.33c-1.01-4.33,1.79-3.51,4.19-3.38c1.18,3.81-2.98,7.6,0.24,11.61
			c2.58-3.32,7.23-2.64,10.48-5.4c1.71-1.45,3.64,1.78,5.81,2.31c2.27,0.55,4.48,4.33,6.25-0.56c0.23-0.64,1.19-0.23,1.71-0.38
			c4.88-1.34,9.66-0.51,14.45,0.39c0.42,0.08,0.74,0.61,1.15,0.87c1.13,0.74-1.97,4.14,1.75,3.05c2.97-0.87,6.67-1.23,6.67-5.5
			c1.43-0.49,0.59,4.54,3.14,0.87c0.88-1.26,2.6-2.62,4.7-1.59c0.26,0.13,0.56,0.17,0.84,0.25c0.94-5.1,4.81-0.78,6.96-2.17
			c0.91-2.05-1.76-2.02-2-3.36c2.04-2.34,4.37-1.88,6.73-0.53c0.52-1.55-2.69-5.87,2.85-3.52c1.05,0.44,2.55-1.64,1.01-3.18
			c-0.93-0.92-2.44-1.76-0.8-2.79c1.52-0.96,3.15-3.04,5.04-2.15c2.16,1.02-0.32,2.43-0.42,3.72c-0.06,0.82-0.25,1.63-0.37,2.34
			c1.34,1.59,5.27-1.75,4.87,2.82c-0.11,1.29,0.54,2.86-1.84,2.27c-2.95-0.74-1.5,1.35-1.2,2.21c1.02,2.89,4.12,2.42,6.25,3.16
			c2.01,0.7,1.67-1.33,1.63-2.96c-0.05-1.64,2.04-1.13,3.14-1.63c1.09-0.48,1.77,0.33,2.39,1.23c1.23,1.78-0.32,2.46-1.97,3.29
			c2.47,0.54,4.21,0.92,6,1.31c1.55-1.57-1.11-2.45-0.67-3.82c5.46,0,10.82,3.62,16.56-0.38c1.34-0.93,6.83-0.67,6.14,4.77
			c4.57-1.63,0.19-5.15,2.05-7.13l-0.01,0.14c2.29-1.13,4.69-0.71,7.08-0.58c0.97,0.05,2.03-0.19,2.49,1.01
			c0.57,1.46,1.4,4.34,2.52,3.41c2.27-1.87,5.71-0.63,7.31-3.38c0.41-0.71,0.86-1.39,1.29-2.09c0.58,0.35,1.16,0.69,1.74,1.04
			c4.91,0.11,9.15,3.77,14.27,2.75c0.94-0.19,2.64-0.69,2.62-0.96c-0.32-4.87,2.94-5.66,6.62-6.5c0.83-0.19,1.07-0.76,2.19-0.13
			c2.37,1.34,4.84,3.47,7.57-0.07c0.9-1.16,3.19-0.61,4.13,1.28c0.83,1.68,3.2,2.26,3.67,1.41c2.18-3.96,5.35-1.96,8.22-1.9
			c-0.34,4.47,2.5,2.03,4.26,1.96c1.96,1.35,3.9,3.16,5.99,0.19c0.62-0.04,1.25-0.07,1.87-0.11c2.11,0.79,4.36,2.9,5.08-1.67
			c0.23-1.47,2.54-3.44,4.13-3.67c2.26-0.34,1.41,2.42,2,3.79c0.96,2.21,4.68,2.3,4.75,2.24c6.02-4.97,4.67,2.5,6.96,4.07
			c1.83-1.37,0.53-3.06-0.01-5.1c3.9,1.68,6.24,0.01,8.19-3.5c1.1,2.74-1.21,3.81-0.99,6.01c3.03-2.73,7.12,1.67,10.01-2.05
			c1.17,0.02,2.34,0.04,3.51,0.06c2.97-0.33,5.95-0.99,8.89-0.85c1.82,0.08,6.16-1.25,3.91,3.71c-0.15,0.32,0.45,1.3,0.92,1.52
			c0.99,0.46,1.31-0.39,1.74-1.17c2.47-4.56,3.18-4.63,5.67-0.32c0.79,1.36,1.5,1.66,2.7,0.84c0.79-0.54,1.5-1.21,2.22-1.85
			c3.19-2.82,7.45-5.31,10.26-5.97C429.53,17.08,430.02,17.1,430.5,17.12z M215.3,28.87c2.29-0.51,4-0.96,3.44-3.15
			c-0.11-0.45-1.73-0.93-2.46-0.72C214.04,25.64,215.93,27.47,215.3,28.87z"/>
		<path class="st0" d="M615.27,141c-0.27-3.08,2.56-7.12-2.62-9.1c-0.94-0.36-0.15-1.82,0.19-2.73c0.48-1.28,1.58-1.25,2.43-0.68
			c2.32,1.55,4.5,1.49,6.93,0.21c2.24-1.18,3.69,0.84,4.35,2.21c1.78,3.68,4.53,5.1,8.39,4.85c1.49-0.1,2.53,0.24,2.94,1.92
			c0.45,1.84-0.62,1.99-1.94,2.62c-2.42,1.15-2.36,4.2-3.88,6.16c-2.48,3.18-3.98,7.75-9.45,6.36
			C617.93,151.63,615.11,147.07,615.27,141z"/>
		<path class="st1" d="M119.06,174.99c0.41-2.7,1.8-3.7,4.39-2.48c1.27,0.6,2.53,0.38,3.8,0.14c0,0-0.01,0-0.01,0
			c-0.72,2.63,0.69,3.4,2.98,3.39c3.42-0.14,3.87,3.58,6.25,4.82c1.15,0.6,0.39,1.4-0.13,1.96c-1.37,1.46-2.85,2.77-4.89,3.24
			c-1.13,0.26-1.85,2.28-3.38,0.79c-1.29-1.26-0.55-2.19,0.34-3.36c1.6-2.1-0.3-3.5-1.15-5.24c-1.35-2.75-2.57-0.41-3.44,0.02
			C119.99,180.2,121.34,175.01,119.06,174.99z"/>
		<path class="st1" d="M282.06,150.4c2.79-5.99,8.1-5.52,13.35-5.21c-1.41,2.67-1.43,2.68-4.69,2.09c-1.83-0.33-5.18,4.38-5.22,7.54
			c2.49-0.62,4.07-5.72,7.87-1.27c-2.78,0.26-3.99,2.65-6.4,3.29c-5.32,1.42-6.25,0.7-5.94-4.96c0,0-0.11,0.12-0.11,0.12
			C281.99,151.96,281.91,151.1,282.06,150.4z"/>
		<path class="st0" d="M192.4,18.77c2.78,0.94,1.99,6,5.33,4.34c1.9-0.95-1.09-2.99-1.13-4.98c1.24-0.13,2.51-0.45,3.75-0.36
			c1.87,0.13,4.8-0.91,5.33,1.08c0.58,2.17,0.04,5.26-1.24,7.08c-0.71,1-3.82,1.52-5.68,1.5C194.75,27.38,192.13,23.5,192.4,18.77z"
			/>
		<path class="st1" d="M178.41,26.41c-4.9-3.21-8.96,0.32-13.39,0.04c-4.4-0.28-6.14-1.45-5.92-6.73c3.92,4.67,8.87,3.47,13.55,2.48
			C175.93,21.51,177.56,22.33,178.41,26.41z"/>
		<path class="st1" d="M600.49,134.56c-0.32,4.42-4.03,5.67-6.07,8.07c-1.04,1.22-3.14-1.08-3.35-3.02
			c-0.1-0.95-1.46-3.56,1.64-2.48c0.91,0.31,1.05,0.2,1.15-0.56c0.06-0.49-0.02-1.01,0.11-1.47c0.61-2.16,2.41-2.55,4.26-2.55
			C599.81,132.55,600.52,133.62,600.49,134.56z"/>
		<path class="st1" d="M686.99,69.8c-0.22,0.58-0.44,1.16-0.66,1.75c-1.95-3.92-6.19-1.49-8.92-3.22c-0.11-1.94,0.3-3.53,2.59-3.87
			c0.41,1.21,0.85,2.43,2.46,2.31c1.64-0.12,1.26-1.46,1.4-2.47c1.44-1.05,2.88-2.08,4.3-3.14c0.58-0.43,1.26-0.65,1.69-0.01
			c0.38,0.56,0.85,1.44,0.06,2.01c-1.84,1.33-4.3,2.26-1.09,4.9C689.52,68.63,687.43,68.97,686.99,69.8z"/>
		<path class="st1" d="M414.55,17c-0.8-0.43-1.37-0.55-1.62-0.9c-0.73-1.03-1.8-1.91-1.7-3.36c3.76,0.3,2.18-4.88,4.84-4.99
			c1.88-0.08,3.39,1.85,4.1,3.84c0.15,0.41,0.18,1.12-0.06,1.37C418.46,14.69,415.09,13.73,414.55,17z"/>
		<path class="st1" d="M679.28,115.21c-2.35-0.88-4.52-2.53-7.3-2.28c-1.01,0.09-1.92-0.58-2.09-1.7c-0.06-0.38,0.43-1.21,0.58-1.19
			c3.24,0.43,5.76-2.67,9.12-1.79c0.83,0.22,1.62,0.34,2.06,1.07c0.79,1.31-0.22,1.7-1.18,2.03
			C678.32,112.06,680.39,113.98,679.28,115.21z"/>
		<path class="st1" d="M156.39,22.9c-0.83,3.16-1.69,5.81-5.21,6.09c-0.98,0.08-2.05,0.23-2.14-1.24c-0.11-1.72,3.54-8.34,4.38-7.92
			C154.77,20.53,156.18,21.41,156.39,22.9z"/>
		<path class="st1" d="M33.23,160.93c0.96,0.02,1.92,0.03,2.88,0.05c-1.5,1.4-3.38,2.58-0.69,4.79c1.37,1.13,0.9,3.17,0.57,4.72
			c-0.23,1.09-1.67,0.83-2.6,0.67c-2.51-0.43-1.48-2.53-1.77-4c-0.16-0.81,0.03-1.91-0.44-2.41
			C27.96,161.3,31.14,161.43,33.23,160.93z"/>
		<path class="st1" d="M145.75,24.1c-2.4-0.13-5.2-0.95-4.19,3.38c0.4,1.72-1.3,2.36-3.1,3.33c0.4-2.71,0.82-5.19-1.5-6.84
			c1.12-1.12,1.63-4.8,2.73-3.43C141.48,22.79,146.34,19,145.75,24.1z"/>
		<path class="st1" d="M194.99,163.95c1.77,0.46,4.59-1.29,4.89,2.31c-1.51-0.16-3.03-0.99-3.89,1.45c-0.32,0.9-2.3,1.84-3.92,0.79
			c-1.61-1.04-3.44-2.82-2.69-4.25C190.57,161.97,193.03,163.18,194.99,163.95z"/>
		<path class="st1" d="M18.19,114.84c-5.51,1.37-6.26-3.04-7.84-6.45c3.24-1.93,5.88-2.58,6.38,2.54c0.14,1.37,0.89,2.68,1.35,4.02
			C18.08,114.95,18.19,114.84,18.19,114.84z"/>
		<path class="st1" d="M265.27,23.51c-2.31,0.81-4.69,2.34-6.66-0.59c-0.88-1.31-1.62-0.09-2.45,0.06c-1.89,0.33-3.53-0.07-4.64-2.2
			c1.12-0.17,2.17-0.22,3.07-0.35c2.89-0.41,6.93-3.78,8,2.4c0.07,0.42,1.73,0.57,2.66,0.84C265.26,23.65,265.27,23.51,265.27,23.51
			z"/>
		<path class="st1" d="M287.71,23.06c-0.58-0.35-1.16-0.69-1.74-1.04c-0.23-2.38,0.76-3.93,5.85-8.95
			C292.81,17.55,289.03,19.82,287.71,23.06z"/>
		<path class="st1" d="M48.4,193.19c1.87-4.32,4.09-6.17,6.47-7.89c0.15-0.11,0.13-0.62,0.03-0.89c-0.14-0.43-0.45-0.38-0.57,0.12
			c-0.07,0.28-0.02,0.82,0.13,0.88c1.63,0.73,3.33,2.27,2.51,3.64C55.42,191.64,52.17,191.63,48.4,193.19z"/>
		<path class="st1" d="M43.19,186.36c-0.44-2.95-1.72-4.87-0.46-7.04c0.57-0.98,0.83-2.29,2.04-2.59c1.19-0.29,1.75,0.83,2.07,1.71
			c0.47,1.32,1.64,3.17-0.06,3.95C45.1,183.16,44.44,184.46,43.19,186.36z"/>
		<path class="st1" d="M60.19,51.41c-4.19-1.39-3.93,1.91-5.29,3.25c-1.96,1.94-3.44,1.76-5.01,0.27c-2.18-2.08,0.63-2.26,1.42-3.32
			C53.86,48.17,55.56,47.88,60.19,51.41z"/>
		<path class="st1" d="M398.79,136.63c0.26-0.93,0.8-1.55,1.79-1.71c0.72,1.84,2.27,0.94,3.51,1.05c0,0-0.08-0.14-0.08-0.14
			c-0.47,1.68-2.86,2.43-2.23,4.68c0.29,1.03,0.98,2.54-0.91,2.61c-1.33,0.05-3.16,0.88-3.99-0.9c-0.53-1.14-0.89-2.56,0.06-3.77
			C397.47,137.77,399.07,138.16,398.79,136.63z"/>
		<path class="st1" d="M26.99,128.06c0.21,4.38-2.21,1.55-3.26,1c-1.99-1.03-1.32-4.34-4.07-5.07c-0.72-0.19,0.01-1.19,0.49-1.53
			c1.07-0.77,2.22-1.56,3.63-1.3c0.96,0.18,1.29,1,1.21,1.89c-0.19,2.11,0.11,3.98,2.13,5.16
			C27.12,128.21,26.99,128.06,26.99,128.06z"/>
		<path class="st1" d="M42.99,56.86c0.59,1.31,0.98,2.76,1.81,3.89c1.94,2.65,0.07,2.88-1.83,3.22c-2.89-0.91-2.46-6.03-8.07-4.5
			C38.28,57.18,40.74,57.39,42.99,56.86z"/>
		<path class="st1" d="M349.1,20.99c-0.62,0.04-1.25,0.07-1.87,0.11c0.36-2.32-1.79-2.85-2.94-4.05c-0.84-0.87-2.56-1.21-1.46-2.98
			c0.73-1.18,1.91-1.17,3.05-0.92c1.39,0.3,2.89,1.43,2.17,2.62C346.64,18.11,348.42,19.34,349.1,20.99z"/>
		<path class="st1" d="M102.7,13.09c0.43,0.87,1.52,0.8,2.25,0.23c1.02-0.79,0.06-4.11,2.84-2.58c2.2,1.21,1.96,3.36,0.72,5.56
			C106.21,15.64,105.74,11.61,102.7,13.09z"/>
		<path class="st1" d="M265.96,149.15c0.35-1.71,1.38-2.97,2.9-1.53c1.72,1.64-1.08,1.05-1.29,1.86c-0.19,0.75-0.34,1.5-0.5,2.26
			c-1.91,0.45-0.53,3.48-2.63,3.5c-0.66,0.01-1.44-1.17-1.99-1.93c-0.72-1-0.24-1.85,0.69-2.45
			C264.06,150.27,265.02,149.72,265.96,149.15z"/>
		<path class="st1" d="M80.18,20.04c-3.09,0-5.38-0.08-7.66,0.03c-1.75,0.08-1.88-1.34-1.91-2.27c-0.07-1.7,1.37-0.48,1.94-0.75
			C75.72,15.53,77.44,17.75,80.18,20.04z"/>
		<path class="st1" d="M141.86,175.15c2.62,2.06,3.84-1.35,5.93-1.63c0.56,1.82,0.78,3.34-1.75,3.43c-3.81-1.09-1.22,2.49-2.37,3.45
			c-1.94-0.92-1.87-3.89-5.48-3.6C140.12,175.94,140.99,175.55,141.86,175.15z"/>
		<path class="st1" d="M527.94,38.04c-1.33,1.28-2.66,0.95-3.98-0.01c-0.24-0.67,0.4-2.1-0.6-1.95c-1.64,0.26-2.54,0.54-1.74-1.61
			c0.58-1.57,1.31-1.91,2.72-0.8C525.88,34.87,527.72,35.77,527.94,38.04z"/>
		<path class="st1" d="M67.72,208.95c-2.28,0.6-3.5-0.31-3.76-1.94c-0.34-2.13,1.59-1.65,2.7-1.67c1.65-0.03,3.7,0.18,3.76,2.28
			C70.47,209.6,68.3,208.47,67.72,208.95z"/>
		<path class="st1" d="M392.74,21.15c-1.17-0.02-2.34-0.04-3.51-0.06c1.2-1.65-0.61-3.05-0.38-4.64c0.11-0.77-1.61-1.74,0.11-2.35
			c1.3-0.46,1.38,0.94,2.02,1.58C392.55,17.27,391.68,19.5,392.74,21.15z"/>
		<path class="st1" d="M98.32,30.09c-0.42-0.36-0.84-0.72-1.26-1.08c0.79-2.25-1.88-3.37-1.64-5.69c2.13-0.32,4.45,0.42,5.44,2.07
			C102.16,27.54,99.08,28.42,98.32,30.09z"/>
		<path class="st1" d="M61.46,219.36c-2.44-2.16-0.3-4.81-1.75-6.89C64.44,216.05,64.44,216.05,61.46,219.36z"/>
		<path class="st1" d="M30.1,63.79c-1.93-0.85-3-2.01-3.93-3.32c0.45-1.07,1.49-0.99,2.1-0.7c2.41,1.11,2.14-4.47,4.24-1.88
			C33.16,58.68,30.99,61.75,30.1,63.79z"/>
		<path class="st1" d="M48.24,42.99c2.27-0.12,4.39,0.17,4.7,1.81c0.41,2.16-2.76,2.83-3.24,5.01c-0.11,0.51-1.15,0.09-1.67-0.33
			c-0.78-0.62-0.91-1.2,0.01-1.87C49.87,46.29,48.46,44.7,48.24,42.99z"/>
		<path class="st1" d="M421.32,143.16c-2.38,1.15-4.66,1.97-6.45-0.21c-0.66-0.8-0.47-2.51,0.21-2.73
			C417.89,139.31,418.47,143.37,421.32,143.16z"/>
		<path class="st1" d="M109.34,24.03c1.21,2.23,2.38,4.44-1.72,4.76c-0.93-0.95-2.71-0.7-3.09-2.54c-0.19-0.93-3.14-1-1.28-2.69
			c1.38-1.26,2.05,0.31,2.88,1.43C107.78,27.21,108.65,25.67,109.34,24.03z"/>
		<path class="st1" d="M308.74,164.81c1.48-2.12,2.91-4.35,6.59-4.08C313.43,163.39,311.37,164.55,308.74,164.81z"/>
		<path class="st1" d="M245.88,20.56c0.18-1.24-0.35-3.07,1.59-3.47c0.55-0.11,2.41,1.14,1.89,1.57c-1.68,1.35-0.11,4.44-2.43,4.79
			C245.36,23.68,245.94,21.77,245.88,20.56z"/>
		<path class="st1" d="M154.05,174.95c-0.4-0.38-0.81-0.76-1.21-1.14c5.42-1.67,6.18-1.09,6.28,4.75
			C156.39,178.81,156.87,174.57,154.05,174.95z"/>
		<path class="st1" d="M8.91,68.33c1.3,0.38,2.81,0.82,2.95,2.57c0.08,1.02-0.74,2.01-1.74,1.95c-1.88-0.1-2.7-1.64-2.98-3.26
			C7,68.76,7.83,68.23,8.91,68.33z"/>
		<path class="st1" d="M495.7,24.98c1.68-2.27,3.92-2.65,5.72-3.68c0.78-0.45,2.03-1.02,2.5,0.27c0.39,1.06-0.58,1.9-1.49,2.31
			C500.49,24.77,498.49,25.56,495.7,24.98z"/>
		<path class="st1" d="M140.2,10.84c-3.01,0.13-5.14-1.02-6.26-4.57C137.06,6.9,138.11,9.69,140.2,10.84z"/>
		<path class="st1" d="M63.5,197.61c-1.37-1.82-1.67-4.05,0.59-4.79c3.46-1.12,3.29,0.48,1.26,2.59
			C64.7,196.08,64.14,196.84,63.5,197.61z"/>
		<path class="st1" d="M90.48,22.21c-1.25-0.5-2.23-0.94-1.88-2.17c0.42-1.43,1.04-2.87,2.88-2.9c1.23-0.02,1.86,0.71,1.49,1.89
			C92.52,20.43,91.75,21.65,90.48,22.21z"/>
		<path class="st1" d="M181.99,163.86c0.53,0.49,1.05,0.98,1.58,1.47c-0.11,0.3-0.2,0.62-0.35,0.9c-0.62,1.15,0.76,3.55-1.39,3.47
			c-1.88-0.07-2.55-2.59-2.9-4.03C178.41,163.55,180.8,164.27,181.99,163.86z"/>
		<path class="st1" d="M430.5,17.12c-0.49-0.02-0.97-0.04-1.46-0.06c-0.21-1.31,0.79-2.05,1.38-2.99c0.57-0.9,0.77-2.4,2.32-1.89
			c1.31,0.43,1.26,1.7,1.26,2.87c0,2.71-1.77,0.53-2.57,0.98C431.05,16.25,430.81,16.75,430.5,17.12z"/>
		<path class="st1" d="M201.93,10.65c1.26,0.03,2.34,0.4,2.33,1.87c-0.01,1.86-1.81,1.58-2.87,2.05c-1.29,0.57-1.79-0.54-1.88-1.49
			C199.36,11.44,200.49,10.84,201.93,10.65z"/>
		<path class="st1" d="M23.94,116.06c0,0-0.05-0.1-0.05-0.1c-1.69,0.33-0.14,3.94-3.09,3.02c-2.08-0.65-3.31-1.77-2.61-4.15
			c0,0-0.11,0.11-0.11,0.11C20.26,114.18,21.42,118.7,23.94,116.06z"/>
		<path class="st1" d="M707.24,77.52c-0.11-0.49-0.23-0.99-0.34-1.48c3.56,0,7.12,0,10.95,0C714.43,79.32,710.77,77.79,707.24,77.52
			z"/>
		<path class="st1" d="M149.83,16.69c-3.11,1.51-3.46-1.47-4.61-2.94c-0.49-0.63,0.34-1.11,0.93-1.34c1.08-0.42,2.13-0.32,1.95,1.11
			C147.91,15.1,150.28,15.07,149.83,16.69z"/>
		<path class="st1" d="M341.24,20.9c-1.75,0.07-4.59,2.52-4.26-1.96C340.64,14.73,339.89,20.11,341.24,20.9z"/>
		<path class="st1" d="M619.17,56.28c-2.34-0.18-4.42-0.47-3.54-3.59c0.16-0.57-0.81-1.81,0.62-1.52
			C618.81,51.69,618.42,54.37,619.17,56.28z"/>
		<path class="st0" d="M130.22,176.04c-2.29,0.01-3.69-0.76-2.98-3.39C128.84,173.25,133.17,171.44,130.22,176.04z"/>
		<path class="st0" d="M683.86,64.3c-0.14,1.01,0.24,2.35-1.4,2.47c-1.62,0.12-2.06-1.1-2.46-2.31
			C681.27,64.04,682.52,63.01,683.86,64.3z"/>
		<path class="st1" d="M406.61,136.18c0.85,0.3,1.71,0.59,2.56,0.89c-0.29,0.5-0.57,1.01-0.86,1.51
			C407.75,137.79,407.18,136.98,406.61,136.18z"/>
		<path class="st1" d="M202.94,169c0.61,0.27,1.22,0.54,1.83,0.81C203.02,172.1,203.37,169.69,202.94,169z"/>
		<path class="st1" d="M675.97,68.28c-0.15,1.2-0.84,1.92-2,1.47c-1.08-0.42-0.87-1.19,0.03-1.77
			C674.66,68.08,675.32,68.18,675.97,68.28z"/>
		<path class="st0" d="M29,143.91c-0.01,0.24-0.02,0.48-0.04,0.72c-0.2-0.11-0.41-0.21-0.61-0.32c0.26-0.1,0.51-0.21,0.77-0.31
			C29.12,144,29,143.91,29,143.91z"/>
		<path class="st0" d="M219,158.93c-0.08,0.22-0.15,0.45-0.23,0.67c-0.11-0.18-0.22-0.36-0.33-0.54c0.22,0,0.44-0.01,0.66-0.01
			C219.09,159.05,219,158.93,219,158.93z"/>
	</g>
</g>
</svg>
